0
SECTION
2
HEADER
9
$INSUNITS
70
4
9
$ACADVER
1
AC1014
9
$HANDSEED
5
FFFF
0
ENDSEC
0
SECTION
2
TABLES
0
TABLE
2
VPORT
5
8
100
AcDbSymbolTable
0
ENDTAB
0
TABLE
2
LTYPE
5
5
100
AcDbSymbolTable
0
LTYPE
5
14
100
AcDbSymbolTableRecord
100
AcDbLinetypeTableRecord
2
BYBLOCK
70
0
0
LTYPE
5
15
100
AcDbSymbolTableRecord
100
AcDbLinetypeTableRecord
2
BYLAYER
70
0
0
ENDTAB
0
TABLE
2
LAYER
5
2
100
AcDbSymbolTable
70
2
0
LAYER
5
50
100
AcDbSymbolTableRecord
100
AcDbLayerTableRecord
2
0
70
0
6
CONTINUOUS
0
ENDTAB
0
TABLE
2
STYLE
5
3
100
AcDbSymbolTable
70
1
0
STYLE
5
11
100
AcDbSymbolTableRecord
100
AcDbTextStyleTableRecord
2
STANDARD
70
0
0
ENDTAB
0
TABLE
2
VIEW
5
6
100
AcDbSymbolTable
70
0
0
ENDTAB
0
TABLE
2
UCS
5
7
100
AcDbSymbolTable
70
0
0
ENDTAB
0
TABLE
2
APPID
5
9
100
AcDbSymbolTable
70
2
0
APPID
5
12
100
AcDbSymbolTableRecord
100
AcDbRegAppTableRecord
2
ACAD
70
0
0
ENDTAB
0
TABLE
2
DIMSTYLE
5
A
100
AcDbSymbolTable
70
1
0
ENDTAB
0
TABLE
2
BLOCK_RECORD
5
1
100
AcDbSymbolTable
70
1
0
BLOCK_RECORD
5
1F
100
AcDbSymbolTableRecord
100
AcDbBlockTableRecord
2
*MODEL_SPACE
0
BLOCK_RECORD
5
1B
100
AcDbSymbolTableRecord
100
AcDbBlockTableRecord
2
*PAPER_SPACE
0
ENDTAB
0
ENDSEC
0
SECTION
2
BLOCKS
0
BLOCK
5
20
100
AcDbEntity
100
AcDbBlockBegin
2
*MODEL_SPACE
0
ENDBLK
5
21
100
AcDbEntity
100
AcDbBlockEnd
0
BLOCK
5
1C
100
AcDbEntity
100
AcDbBlockBegin
2
*PAPER_SPACE
0
ENDBLK
5
1D
100
AcDbEntity
100
AcDbBlockEnd
0
ENDSEC
0
SECTION
2
ENTITIES
0
CIRCLE
5
100
100
AcDbEntity
8
0
100
AcDbCircle
10
-261.9999999999996
20
-90
30
0
40
2.6249999999999929
210
0
220
0
230
1
0
CIRCLE
5
101
100
AcDbEntity
8
0
100
AcDbCircle
10
261.9999999999996
20
-90
30
0
40
2.6249999999999929
210
0
220
0
230
1
0
LWPOLYLINE
5
102
100
AcDbEntity
8
0
100
AcDbPolyline
90
8
70
1
43
0.0
10
13.999999999999616
20
-214.25000000019736
42
-0.41421356237309698
10
11.999999999999611
20
-216.25000000019736
10
-12.000000000000384
20
-216.25000000019736
42
-0.41421356237309792
10
-14.000000000000393
20
-214.25000000019736
10
-14.00000000000038
20
-190.25000000019733
42
-0.41421356237309437
10
-12.000000000000393
20
-188.25000000019736
10
11.999999999999602
20
-188.25000000019739
42
-0.41421356237309792
10
13.999999999999611
20
-190.25000000019736
0
LWPOLYLINE
5
103
100
AcDbEntity
8
0
100
AcDbPolyline
90
4
70
1
43
0.0
10
228.59999999999894
20
180.0999999999986
42
-0.99999999999999989
10
228.59999999999906
20
172.90000000000074
10
226.59999999999889
20
172.90000000000003
42
-0.99999999999999989
10
226.59999999999906
20
180.09999999999931
0
CIRCLE
5
104
100
AcDbEntity
8
0
100
AcDbCircle
10
239.9999999999996
20
-202.25000000000048
30
0
40
2.6249999999999929
210
0
220
0
230
1
0
LWPOLYLINE
5
105
100
AcDbEntity
8
0
100
AcDbPolyline
90
4
70
1
43
0.0
10
228.59999999999886
20
192.09999999999954
42
-0.99999999999999989
10
228.599999999999
20
184.89999999999969
10
226.59999999999897
20
184.89999999999969
42
-0.99999999999999989
10
226.59999999999897
20
192.09999999999962
0
LWPOLYLINE
5
106
100
AcDbEntity
8
0
100
AcDbPolyline
90
8
70
1
43
0.0
10
258.59999999999923
20
197.49999999999969
42
-0.41421356237307422
10
257.59999999999923
20
196.49999999999966
10
235.59999999999877
20
196.49999999999963
42
-0.41421356237311585
10
234.59999999999877
20
197.49999999999972
10
234.59999999999923
20
214.49999999999935
42
-0.41421356237310542
10
235.59999999999923
20
215.49999999999932
10
257.59999999999923
20
215.49999999999966
42
-0.41421356237308465
10
258.59999999999928
20
214.49999999999963
0
CIRCLE
5
107
100
AcDbEntity
8
0
100
AcDbCircle
10
-261.9999999999996
20
90
30
0
40
2.6249999999999929
210
0
220
0
230
1
0
LWPOLYLINE
5
108
100
AcDbEntity
8
0
100
AcDbPolyline
90
8
70
1
43
0.0
10
-234.59999999999872
20
197.49999999999969
42
-0.41421356237312629
10
-235.59999999999874
20
196.49999999999963
10
-257.59999999999923
20
196.49999999999966
42
-0.41421356237307422
10
-258.59999999999923
20
197.49999999999969
10
-258.59999999999928
20
214.49999999999963
42
-0.41421356237307422
10
-257.59999999999928
20
215.49999999999966
10
-235.59999999999923
20
215.49999999999932
42
-0.41421356237310542
10
-234.59999999999923
20
214.49999999999935
0
CIRCLE
5
109
100
AcDbEntity
8
0
100
AcDbCircle
10
-210.00000000000063
20
217.49999999999969
30
0
40
2.6249999999999929
210
0
220
0
230
1
0
CIRCLE
5
110
100
AcDbEntity
8
0
100
AcDbCircle
10
69.999999999999361
20
217.49999999999969
30
0
40
2.6250000000000018
210
0
220
0
230
1
0
CIRCLE
5
111
100
AcDbEntity
8
0
100
AcDbCircle
10
-261.9999999999996
20
-4.6440701683723312e-16
30
0
40
2.6249999999999929
210
0
220
0
230
1
0
CIRCLE
5
112
100
AcDbEntity
8
0
100
AcDbCircle
10
259.9999999999996
20
-221.50000000000045
30
0
40
5.5000000000000071
210
0
220
0
230
1
0
CIRCLE
5
113
100
AcDbEntity
8
0
100
AcDbCircle
10
-70.000000000000455
20
217.49999999999969
30
0
40
2.6250000000000018
210
0
220
0
230
1
0
CIRCLE
5
114
100
AcDbEntity
8
0
100
AcDbCircle
10
266.99999999999926
20
-183.00000000000051
30
0
40
5.4999999999999716
210
0
220
0
230
1
0
CIRCLE
5
115
100
AcDbEntity
8
0
100
AcDbCircle
10
-259.9999999999996
20
-221.50000000000045
30
0
40
5.5000000000000071
210
0
220
0
230
1
0
CIRCLE
5
116
100
AcDbEntity
8
0
100
AcDbCircle
10
261.9999999999996
20
-4.6440701683723312e-16
30
0
40
2.6249999999999929
210
0
220
0
230
1
0
CIRCLE
5
117
100
AcDbEntity
8
0
100
AcDbCircle
10
-266.4999999999996
20
-183.00000000000045
30
0
40
5.5000000000000071
210
0
220
0
230
1
0
LWPOLYLINE
5
118
100
AcDbEntity
8
0
100
AcDbPolyline
90
4
70
1
43
0.0
10
-228.599999999999
20
184.89999999999969
42
-0.99999999999999989
10
-228.599999999999
20
192.09999999999962
10
-226.59999999999795
20
192.09999999999962
42
-0.99999999999999989
10
-226.59999999999928
20
184.89999999999969
0
CIRCLE
5
119
100
AcDbEntity
8
0
100
AcDbCircle
10
-266.4999999999996
20
221.49999999999952
30
0
40
5.5000000000000071
210
0
220
0
230
1
0
CIRCLE
5
120
100
AcDbEntity
8
0
100
AcDbCircle
10
-227.99999999999969
20
221.49999999999952
30
0
40
5.5000000000000071
210
0
220
0
230
1
0
CIRCLE
5
121
100
AcDbEntity
8
0
100
AcDbCircle
10
209.99999999999937
20
217.49999999999969
30
0
40
2.6249999999999929
210
0
220
0
230
1
0
CIRCLE
5
122
100
AcDbEntity
8
0
100
AcDbCircle
10
-240.0000000000004
20
-202.25000000000048
30
0
40
2.6249999999999929
210
0
220
0
230
1
0
LWPOLYLINE
5
123
100
AcDbEntity
8
0
100
AcDbPolyline
90
4
70
1
43
0.0
10
-228.59999999999829
20
172.90000000000003
42
-0.99999999999999989
10
-228.59999999999962
20
180.0999999999986
10
-226.59999999998593
20
180.09999999999923
42
-0.99999999999999989
10
-226.599999999999
20
172.90000000000003
0
CIRCLE
5
124
100
AcDbEntity
8
0
100
AcDbCircle
10
266.99999999999926
20
221.49999999999952
30
0
40
5.4999999999999716
210
0
220
0
230
1
0
CIRCLE
5
125
100
AcDbEntity
8
0
100
AcDbCircle
10
261.9999999999996
20
90
30
0
40
2.6249999999999929
210
0
220
0
230
1
0
LWPOLYLINE
5
126
100
AcDbEntity
8
0
100
AcDbPolyline
90
4
70
1
43
0.0
10
-21.600000000000001
20
-220.25000000019736
42
-0.99999999999999989
10
-14.400000000000002
20
-220.25000000019736
10
-14.399999999999999
20
-222.25000000019733
42
-0.99999999999999989
10
-21.600000000000005
20
-222.25000000019733
0
LWPOLYLINE
5
127
100
AcDbEntity
8
0
100
AcDbPolyline
90
4
70
1
43
0.0
10
-21.600000000000037
20
-182.25000000019713
42
-0.99999999999999989
10
-14.399999999999999
20
-182.25000000019762
10
-14.399999999999999
20
-184.25000000019733
42
-0.99999999999999989
10
-21.600000000000001
20
-184.25000000019747
0
CIRCLE
5
128
100
AcDbEntity
8
0
100
AcDbCircle
10
129.99999999999957
20
-202.25000000000048
30
0
40
2.6249999999999929
210
0
220
0
230
1
0
LWPOLYLINE
5
129
100
AcDbEntity
8
0
100
AcDbPolyline
90
4
70
1
43
0.0
10
264.59999999999911
20
184.89999999999975
42
-0.99999999999999989
10
264.59999999999894
20
192.09999999999957
10
266.59999999999906
20
192.09999999999957
42
-0.99999999999999989
10
266.59999999999889
20
184.89999999999975
0
LWPOLYLINE
5
130
100
AcDbEntity
8
0
100
AcDbPolyline
90
4
70
1
43
0.0
10
264.59999999973087
20
172.89999999999986
42
-0.99999999999999989
10
264.60000000026707
20
180.09999999999948
10
266.59999999973098
20
180.09999999985044
42
-0.99999999999999989
10
266.60000000026702
20
172.90000000014888
0
CIRCLE
5
131
100
AcDbEntity
8
0
100
AcDbCircle
10
227.99999999999969
20
221.49999999999952
30
0
40
5.5000000000000071
210
0
220
0
230
1
0
LWPOLYLINE
5
132
100
AcDbEntity
8
0
100
AcDbPolyline
90
4
70
1
43
0.0
10
-33.599999999967345
20
-220.25000000009729
42
-0.99999999999999989
10
-26.400000000032691
20
-220.25000000029746
10
-26.400000000032861
20
-222.25000000029749
42
-0.99999999999999989
10
-33.599999999967139
20
-222.25000000009717
0
LWPOLYLINE
5
133
100
AcDbEntity
8
0
100
AcDbPolyline
90
4
70
1
43
0.0
10
-33.600000000000001
20
-182.25000000019725
42
-0.99999999999999989
10
-26.399999999999999
20
-182.25000000019742
10
-26.399999999999999
20
-184.25000000019747
42
-0.99999999999999989
10
-33.600000000000001
20
-184.25000000019733
0
LWPOLYLINE
5
134
100
AcDbEntity
8
0
100
AcDbPolyline
90
4
70
1
43
0.0
10
-264.60000000011513
20
180.09999999999948
42
-0.99999999999999989
10
-264.60000000011928
20
172.89999999999986
10
-266.59999999973081
20
172.90000000014871
42
-0.99999999999999989
10
-266.60000000026719
20
180.09999999985041
0
LWPOLYLINE
5
135
100
AcDbEntity
8
0
100
AcDbPolyline
90
4
70
1
43
0.0
10
-264.59999999999172
20
192.09999999999957
42
-0.99999999999999989
10
-264.60000000000178
20
184.89999999999975
10
-266.59999999999877
20
184.89999999999966
42
-0.99999999999999989
10
-266.59999999999917
20
192.09999999999957
0
LWPOLYLINE
5
136
100
AcDbEntity
8
0
100
AcDbPolyline
90
8
70
1
43
0.0
10
276.49999999999932
20
-228.50000000000048
42
-0.41421356237309509
10
273.49999999999937
20
-231.50000000000045
10
-273.49999999999937
20
-231.5000000000004
42
-0.41421356237307771
10
-276.49999999999932
20
-228.50000000000048
10
-276.49999999999932
20
228.49999999999955
42
-0.41421356237309509
10
-273.49999999999937
20
231.49999999999952
10
273.49999999999937
20
231.49999999999949
42
-0.41421356237307771
10
276.49999999999932
20
228.49999999999955
0
ENDSEC
0
SECTION
2
OBJECTS
0
DICTIONARY
5
C
100
AcDbDictionary
3
ACAD_GROUP
350
D
3
ACAD_MLINESTYLE
350
17
0
DICTIONARY
5
D
100
AcDbDictionary
0
DICTIONARY
5
1A
330
C
100
AcDbDictionary
0
DICTIONARY
5
17
100
AcDbDictionary
0
ENDSEC
0
EOF
