0
SECTION
2
HEADER
9
$INSUNITS
70
4
9
$ACADVER
1
AC1014
9
$HANDSEED
5
FFFF
0
ENDSEC
0
SECTION
2
TABLES
0
TABLE
2
VPORT
5
8
100
AcDbSymbolTable
0
ENDTAB
0
TABLE
2
LTYPE
5
5
100
AcDbSymbolTable
0
LTYPE
5
14
100
AcDbSymbolTableRecord
100
AcDbLinetypeTableRecord
2
BYBLOCK
70
0
0
LTYPE
5
15
100
AcDbSymbolTableRecord
100
AcDbLinetypeTableRecord
2
BYLAYER
70
0
0
ENDTAB
0
TABLE
2
LAYER
5
2
100
AcDbSymbolTable
70
2
0
LAYER
5
50
100
AcDbSymbolTableRecord
100
AcDbLayerTableRecord
2
0
70
0
6
CONTINUOUS
0
ENDTAB
0
TABLE
2
STYLE
5
3
100
AcDbSymbolTable
70
1
0
STYLE
5
11
100
AcDbSymbolTableRecord
100
AcDbTextStyleTableRecord
2
STANDARD
70
0
0
ENDTAB
0
TABLE
2
VIEW
5
6
100
AcDbSymbolTable
70
0
0
ENDTAB
0
TABLE
2
UCS
5
7
100
AcDbSymbolTable
70
0
0
ENDTAB
0
TABLE
2
APPID
5
9
100
AcDbSymbolTable
70
2
0
APPID
5
12
100
AcDbSymbolTableRecord
100
AcDbRegAppTableRecord
2
ACAD
70
0
0
ENDTAB
0
TABLE
2
DIMSTYLE
5
A
100
AcDbSymbolTable
70
1
0
ENDTAB
0
TABLE
2
BLOCK_RECORD
5
1
100
AcDbSymbolTable
70
1
0
BLOCK_RECORD
5
1F
100
AcDbSymbolTableRecord
100
AcDbBlockTableRecord
2
*MODEL_SPACE
0
BLOCK_RECORD
5
1B
100
AcDbSymbolTableRecord
100
AcDbBlockTableRecord
2
*PAPER_SPACE
0
ENDTAB
0
ENDSEC
0
SECTION
2
BLOCKS
0
BLOCK
5
20
100
AcDbEntity
100
AcDbBlockBegin
2
*MODEL_SPACE
0
ENDBLK
5
21
100
AcDbEntity
100
AcDbBlockEnd
0
BLOCK
5
1C
100
AcDbEntity
100
AcDbBlockBegin
2
*PAPER_SPACE
0
ENDBLK
5
1D
100
AcDbEntity
100
AcDbBlockEnd
0
ENDSEC
0
SECTION
2
ENTITIES
0
LWPOLYLINE
5
100
100
AcDbEntity
8
0
100
AcDbPolyline
90
38
70
1
43
0.0
10
-327.3499999443319
20
15.90192378864697
42
0.26794919243113069
10
-328.84999994433173
20
13.303847577293677
10
-328.84999994433196
20
-41.499999999999673
42
0.41421356237312362
10
-325.84999994433184
20
-44.499999999999687
10
325.84999994436322
20
-44.499999999999673
42
0.41421356237308815
10
328.84999994436322
20
-41.499999999999673
10
328.84999994436328
20
13.303847577293677
42
0.26794919243112147
10
327.34999994436316
20
15.901923788647036
42
-0.26794919243113047
10
325.84999994436316
20
18.50000000000033
10
325.84999994436316
20
166.50000000000017
42
0.41421356237309503
10
322.84999994436316
20
169.50000000000014
10
308.8499999443768
20
169.50000000000014
42
0.41421356237309503
10
305.84999994437675
20
166.50000000000017
10
305.84999994437669
20
162.1999999999949
42
-0.41421356237309853
10
302.84999994437669
20
159.19999999999487
10
252.84999994437669
20
159.1999999999949
42
-0.41421356237309853
10
249.84999994437672
20
162.1999999999949
10
249.84999994437672
20
166.50000000000017
42
0.41421356237310542
10
246.84999994437675
20
169.50000000000014
10
31.000000000021295
20
169.50000000000014
42
0.41421356237310281
10
28.000000000021316
20
166.50000000000017
10
28.000000000021231
20
162.19999999999715
42
-0.41421356237310025
10
25.000000000021181
20
159.19999999999723
10
-24.99999999997884
20
159.19999999999789
42
-0.4142135623730942
10
-27.999999999978765
20
162.19999999999789
10
-27.999999999978794
20
166.50000000000017
42
0.41421356237308293
10
-30.999999999978773
20
169.50000000000014
10
-246.84999994435245
20
169.50000000000014
42
0.41421356237307771
10
-249.84999994435245
20
166.50000000000017
10
-249.84999994435245
20
162.19999999999965
42
-0.41421356237308116
10
-252.84999994435253
20
159.19999999999962
10
-302.84999994435248
20
159.20000000000005
42
-0.41421356237309853
10
-305.84999994435248
20
162.20000000000005
10
-305.84999994435248
20
166.50000000000017
42
0.41421356237308116
10
-308.84999994435248
20
169.50000000000014
10
-322.8499999443319
20
169.50000000000014
42
0.4142135623730846
10
-325.8499999443319
20
166.50000000000017
10
-325.84999994433184
20
18.50000000000032
42
-0.26794919243115189
0
CIRCLE
5
101
100
AcDbEntity
8
0
100
AcDbCircle
10
-315.3499999443427
20
-14.499999999999662
30
0
40
1.6000000000000014
210
0
220
0
230
1
0
CIRCLE
5
102
100
AcDbEntity
8
0
100
AcDbCircle
10
307.84999994434105
20
-38.499999999999673
30
0
40
1.6000000000000014
210
0
220
0
230
1
0
CIRCLE
5
103
100
AcDbEntity
8
0
100
AcDbCircle
10
-17.999999999978847
20
153.49999999999761
30
0
40
2.2000000000000002
210
-8.7806756779410575e-64
220
3.0760868358082687e-10
230
1
0
CIRCLE
5
104
100
AcDbEntity
8
0
100
AcDbCircle
10
-307.84999994434281
20
-38.499999999999673
30
0
40
1.6000000000000014
210
0
220
0
230
1
0
CIRCLE
5
105
100
AcDbEntity
8
0
100
AcDbCircle
10
315.34999994434094
20
-14.499999999999664
30
0
40
1.6000000000000014
210
0
220
0
230
1
0
CIRCLE
5
106
100
AcDbEntity
8
0
100
AcDbCircle
10
18.000000000021142
20
153.49999999999733
30
1.6543612251060553e-23
40
2.200000000000002
210
-8.7806756779410494e-64
220
3.0760868358082672e-10
230
1
0
LWPOLYLINE
5
107
100
AcDbEntity
8
0
100
AcDbPolyline
90
4
70
1
43
0.0
10
260.34999994437686
20
155.59999999999519
42
-0.99999999999999989
10
260.34999994437635
20
151.39999999999498
10
257.84999994437686
20
151.39999999999529
42
-0.99999999999999989
10
257.84999994437646
20
155.59999999999488
0
LWPOLYLINE
5
108
100
AcDbEntity
8
0
100
AcDbPolyline
90
4
70
1
43
0.0
10
-293.84999994435248
20
151.40000000000009
42
0.99999999999999989
10
-293.84999994435242
20
155.60000000000005
10
-296.34999994435248
20
155.60000000000011
42
0.99999999999999989
10
-296.34999994435248
20
151.40000000000009
0
LWPOLYLINE
5
109
100
AcDbEntity
8
0
100
AcDbPolyline
90
4
70
1
43
0.0
10
293.84999994437663
20
155.59999999999513
10
296.34999994437663
20
155.59999999999513
42
-0.99999999999999989
10
296.34999994437658
20
151.39999999999506
10
293.84999994437663
20
151.39999999999506
42
-0.99999999999999989
0
LWPOLYLINE
5
110
100
AcDbEntity
8
0
100
AcDbPolyline
90
4
70
1
43
0.0
10
-260.34999994435253
20
151.39999999999975
10
-257.84999994435253
20
151.39999999999975
42
0.99999999999999989
10
-257.8499999443527
20
155.59999999999974
10
-260.34999994435253
20
155.5999999999998
42
0.99999999999999989
0
LINE
5
111
100
AcDbEntity
8
0
100
AcDbLine
10
-308.84999994435248
20
169.50000000000014
30
0
11
-306.84999994435253
21
169.50000000000011
31
0
0
LWPOLYLINE
5
112
100
AcDbEntity
8
0
100
AcDbPolyline
90
24
70
1
43
0.0
10
-304.84999994435447
20
61.500000000000092
10
-254.84999994435444
20
61.500000000000092
42
-0.41421356237309631
10
-252.84999994435447
20
59.500000000000092
10
-252.84999994435447
20
0.50000000000009637
42
-0.41421356237309709
10
-254.84999994435444
20
-1.4999999999999107
10
-265.84999994435447
20
-1.4999999999999143
42
0.41421356237309548
10
-267.84999994435447
20
-3.4999999999999143
10
-267.84999994435447
20
-19.499999999999915
42
-0.4142135623730957
10
-269.84999994435447
20
-21.499999999999915
10
-289.84999994435447
20
-21.499999999999915
42
-0.4142135623730957
10
-291.84999994435441
20
-19.499999999999915
10
-291.84999994435441
20
-3.4999999999999143
42
0.41421356237309553
10
-293.84999994435441
20
-1.4999999999999181
10
-304.84999994435435
20
-1.4999999999999247
42
-0.41421356237311602
10
-306.84999994435435
20
0.50000000000017586
10
-306.84999994435265
20
39.5
42
0.41421356237310936
10
-308.84999994435259
20
41.500000000000092
10
-316.84999994435441
20
41.500000000000071
42
-0.41421356237309892
10
-318.84999994435441
20
43.500000000000092
10
-318.84999994435441
20
54.500000000000092
42
-0.41421356237309892
10
-316.84999994435441
20
56.500000000000092
10
-308.84999994435441
20
56.500000000000092
42
0.41421356237309631
10
-306.84999994435441
20
58.500000000000092
10
-306.84999994435441
20
59.500000000000092
42
-0.41421356237309631
0
LWPOLYLINE
5
113
100
AcDbEntity
8
0
100
AcDbPolyline
90
24
70
1
43
0.0
10
304.84999994439153
20
61.499999999983714
10
254.84999994439153
20
61.4999999999864
42
0.41421356237308982
10
252.84999994439147
20
59.499999999986514
10
252.84999994438829
20
0.49999999998650679
42
0.41421356237310281
10
254.8499999443882
20
-1.5000000000135927
10
265.84999994438823
20
-1.5000000000141966
42
-0.41421356237308982
10
267.84999994438806
20
-3.5000000000142961
10
267.84999994438721
20
-19.50000000001431
42
0.41421356237308982
10
269.84999994438704
20
-21.50000000001441
10
289.84999994438704
20
-21.500000000015476
42
0.41421356237310025
10
291.84999994438721
20
-19.500000000015589
10
291.84999994438806
20
-3.5000000000155751
42
-0.41421356237310025
10
293.84999994438817
20
-1.5000000000156888
10
304.84999994438806
20
-1.5000000000162927
42
0.41421356237311324
10
306.84999994438817
20
0.49999999998370015
10
306.84999994438857
20
39.499999999983508
42
-0.41421356237310542
10
308.84999994438863
20
41.499999999983501
10
316.84999994439045
20
41.499999999983061
42
0.41421356237310281
10
318.84999994439062
20
43.499999999982961
10
318.84999994439113
20
54.499999999982975
42
0.41421356237310281
10
316.84999994439124
20
56.499999999983075
10
308.84999994439124
20
56.499999999983501
42
-0.41421356237308982
10
306.84999994439136
20
58.499999999983601
10
306.84999994439147
20
59.499999999983615
42
0.41421356237310025
0
ENDSEC
0
SECTION
2
OBJECTS
0
DICTIONARY
5
C
100
AcDbDictionary
3
ACAD_GROUP
350
D
3
ACAD_MLINESTYLE
350
17
0
DICTIONARY
5
D
100
AcDbDictionary
0
DICTIONARY
5
1A
330
C
100
AcDbDictionary
0
DICTIONARY
5
17
100
AcDbDictionary
0
ENDSEC
0
EOF
