0
SECTION
2
HEADER
9
$INSUNITS
70
4
9
$ACADVER
1
AC1014
9
$HANDSEED
5
FFFF
0
ENDSEC
0
SECTION
2
TABLES
0
TABLE
2
VPORT
5
8
100
AcDbSymbolTable
0
ENDTAB
0
TABLE
2
LTYPE
5
5
100
AcDbSymbolTable
0
LTYPE
5
14
100
AcDbSymbolTableRecord
100
AcDbLinetypeTableRecord
2
BYBLOCK
70
0
0
LTYPE
5
15
100
AcDbSymbolTableRecord
100
AcDbLinetypeTableRecord
2
BYLAYER
70
0
0
ENDTAB
0
TABLE
2
LAYER
5
2
100
AcDbSymbolTable
70
2
0
LAYER
5
50
100
AcDbSymbolTableRecord
100
AcDbLayerTableRecord
2
0
70
0
6
CONTINUOUS
0
ENDTAB
0
TABLE
2
STYLE
5
3
100
AcDbSymbolTable
70
1
0
STYLE
5
11
100
AcDbSymbolTableRecord
100
AcDbTextStyleTableRecord
2
STANDARD
70
0
0
ENDTAB
0
TABLE
2
VIEW
5
6
100
AcDbSymbolTable
70
0
0
ENDTAB
0
TABLE
2
UCS
5
7
100
AcDbSymbolTable
70
0
0
ENDTAB
0
TABLE
2
APPID
5
9
100
AcDbSymbolTable
70
2
0
APPID
5
12
100
AcDbSymbolTableRecord
100
AcDbRegAppTableRecord
2
ACAD
70
0
0
ENDTAB
0
TABLE
2
DIMSTYLE
5
A
100
AcDbSymbolTable
70
1
0
ENDTAB
0
TABLE
2
BLOCK_RECORD
5
1
100
AcDbSymbolTable
70
1
0
BLOCK_RECORD
5
1F
100
AcDbSymbolTableRecord
100
AcDbBlockTableRecord
2
*MODEL_SPACE
0
BLOCK_RECORD
5
1B
100
AcDbSymbolTableRecord
100
AcDbBlockTableRecord
2
*PAPER_SPACE
0
ENDTAB
0
ENDSEC
0
SECTION
2
BLOCKS
0
BLOCK
5
20
100
AcDbEntity
100
AcDbBlockBegin
2
*MODEL_SPACE
0
ENDBLK
5
21
100
AcDbEntity
100
AcDbBlockEnd
0
BLOCK
5
1C
100
AcDbEntity
100
AcDbBlockBegin
2
*PAPER_SPACE
0
ENDBLK
5
1D
100
AcDbEntity
100
AcDbBlockEnd
0
ENDSEC
0
SECTION
2
ENTITIES
0
ARC
5
100
100
AcDbEntity
8
0
100
AcDbCircle
10
154.99988575446469
20
-93.000000000000114
30
3.5527136788005009e-14
40
3.0000000000000426
210
0
220
-0
230
1
100
AcDbArc
50
0
51
89.99999999999892
0
LINE
5
101
100
AcDbEntity
8
0
100
AcDbLine
10
154.99988575446474
20
-90.000000000000071
30
3.5527136788005009e-14
11
-184.96245190778103
21
-90.000000000000057
31
3.5527136788005009e-14
0
SPLINE
5
102
100
AcDbEntity
8
0
100
AcDbSpline
70
0
71
3
72
16
73
12
74
0
42
0.000000001
43
0.0000000001
44
0.0000000001
40
0
40
0
40
0
40
0
40
0.11719334201607864
40
0.11719334201607864
40
0.23438668403215748
40
0.23438668403215748
40
0.35158002604823746
40
0.35158002604823746
40
0.41578404433342059
40
0.41578404433342059
40
0.47998806261860083
40
0.47998806261860083
40
0.47998806261860083
40
0.47998806261860083
10
-187.96150855013423
20
-93.075228026408524
30
3.5527136788005009e-14
10
-187.97130435438763
20
-92.684706392171975
30
3.5527136788005009e-14
10
-187.904728946337
20
-92.296005019212487
30
3.5527136788005009e-14
10
-187.6263303658036
20
-91.566000465317089
30
3.5527136788005009e-14
10
-187.41716883548969
20
-91.231676525799685
30
3.5527136788005009e-14
10
-186.88246744547828
20
-90.662021505747276
30
3.5527136788005009e-14
10
-186.56203962250413
20
-90.432136637689979
30
3.5527136788005009e-14
10
-186.01182795918379
20
-90.181381253934035
30
3.5527136788005009e-14
10
-185.80814606492743
20
-90.113721578658655
30
3.5527136788005009e-14
10
-185.38986562076508
20
-90.022900866466586
30
3.5527136788005009e-14
10
-185.17646530206497
20
-90.000000000000128
30
3.5527136788005009e-14
10
-184.96245190778103
20
-90.000000000000128
30
3.5527136788005009e-14
0
SPLINE
5
103
100
AcDbEntity
8
0
100
AcDbSpline
70
0
71
3
72
14
73
10
74
0
42
0.000000001
43
0.0000000001
44
0.0000000001
40
-18.160619251025384
40
-18.160619251025384
40
-18.160619251025384
40
-18.160619251025384
40
-17.47635665626677
40
-17.47635665626677
40
-16.738893976639986
40
-16.738893976639986
40
-15.242491802340755
40
-15.242491802340755
40
-14.988521697965632
40
-14.988521697965632
40
-14.988521697965632
40
-14.988521697965632
10
-187.96150855013425
20
-93.075228026408467
30
3.5527136788005009e-14
10
-187.63976111920954
20
-105.90208014447967
30
3.5527136788005009e-14
10
-185.29782049774056
20
-118.27814136409052
30
0
10
-176.64677389028864
20
-143.54133924480183
30
0
10
-170.19526829919232
20
-155.93222847536668
30
0
10
-147.30716579423645
20
-191.01509183191251
30
-3.5527136788005009e-14
10
-127.5451921574689
20
-211.00603423769905
30
3.5527136788005009e-14
10
-108.33981566963642
20
-228.64680430921678
30
0
10
-105.56421752121786
20
-231.14110674092245
30
0
10
-102.81105642648562
20
-233.58454904009906
30
0
0
LINE
5
104
100
AcDbEntity
8
0
100
AcDbLine
10
-102.81105642648562
20
-233.58454904009906
30
-2.8261564280818175e-30
11
-102.58543077439771
21
-233.78454903861495
31
-3.0814879110195774e-32
0
SPLINE
5
105
100
AcDbEntity
8
0
100
AcDbSpline
70
0
71
3
72
16
73
12
74
0
42
0.000000001
43
0.0000000001
44
0.0000000001
40
-78.422396203890884
40
-78.422396203890884
40
-78.422396203890884
40
-78.422396203890884
40
-78.352750943426017
40
-78.352750943426017
40
-65.168996204377237
40
-65.168996204377237
40
-38.465413172093491
40
-38.465413172093491
40
-29.240462735768915
40
-29.240462735768915
40
-26.516367432160735
40
-26.516367432160735
40
-26.516367432160735
40
-26.516367432160735
10
-102.58543077439818
20
-233.78454903861189
30
0
10
-102.51722086830627
20
-233.84498885172619
30
0
10
-102.44909424719532
20
-233.90533326928596
30
0
10
-89.50073133388679
20
-245.37070168825147
30
0
10
-78.320469968532464
20
-254.52879636814276
30
3.5527136788005009e-14
10
-38.29503008965667
20
-292.10313463454008
30
0
10
-10.340190540154182
20
-323.96294880483015
30
0
10
10.583448546087979
20
-353.62550768037471
30
0
10
15.731590500592944
20
-361.79064524274793
30
0
10
19.509299986232239
20
-370.92000394549427
30
0
10
20.218621757447256
20
-373.00715952981926
30
0
10
20.650522992832489
20
-375.00347013865019
30
0
0
SPLINE
5
106
100
AcDbEntity
8
0
100
AcDbSpline
70
0
71
3
72
14
73
10
74
0
42
0.000000001
43
0.0000000001
44
0.0000000001
40
0
40
0
40
0
40
0
40
0.11719334201608021
40
0.11719334201608021
40
0.23438668403215984
40
0.23438668403215984
40
0.32137202862257264
40
0.32137202862257264
40
0.40835737321297116
40
0.40835737321297116
40
0.40835737321297116
40
0.40835737321297116
10
23.582684627588133
20
-377.36909780275988
30
0
10
23.192040154201198
20
-377.36909780526622
30
0
10
22.805130454407983
20
-377.29279625545473
30
0
10
22.082336575658363
20
-376.99617962208254
30
0
10
21.753362700135902
20
-376.77870035520527
30
0
10
21.268961563360097
20
-376.30061465221331
30
0
10
21.093208218630473
20
-376.06809132060283
30
0
10
20.813910349055003
20
-375.55987938210774
30
0
10
20.711835321983671
20
-375.28686468144997
30
0
10
20.650522992832514
20
-375.0034701386503
30
0
0
LINE
5
107
100
AcDbEntity
8
0
100
AcDbLine
10
23.582684627588133
20
-377.36909780275988
30
0
11
154.99988577371261
21
-377.36909695959105
31
0
0
ARC
5
108
100
AcDbEntity
8
0
100
AcDbCircle
10
154.99988575446477
20
-374.3690969595911
30
-2.9284948375538169e-45
40
2.9999999999999716
210
9.8607613214004859e-32
220
6.3266212660392133e-40
230
1
100
AcDbArc
50
-89.999999632393425
51
0
0
LINE
5
109
100
AcDbEntity
8
0
100
AcDbLine
10
157.99988575446474
20
-374.3690969595911
30
-2.9582283945788197e-31
11
157.99988575446474
21
-93.000000000000085
31
3.5527136788005009e-14
0
CIRCLE
5
110
100
AcDbEntity
8
0
100
AcDbCircle
10
154.49988575446469
20
-237.36909694034313
30
0
40
1.6499999999999915
210
0
220
-1.0675965022082459e-46
230
1
0
CIRCLE
5
111
100
AcDbEntity
8
0
100
AcDbCircle
10
154.49988575446469
20
-373.86909694034324
30
0
40
1.6499999999999915
210
0
220
-1.0675965022082459e-46
230
1
0
CIRCLE
5
112
100
AcDbEntity
8
0
100
AcDbCircle
10
24.52890914594596
20
-373.36909779610045
30
0
40
1.6500000000000004
210
0
220
-1.0675965022082459e-46
230
1
0
CIRCLE
5
113
100
AcDbEntity
8
0
100
AcDbCircle
10
-78.351136100172184
20
-238.28454887905534
30
3.5527136788005009e-14
40
1.6500000000000004
210
0
220
-1.0675965022082459e-46
230
1
0
CIRCLE
5
114
100
AcDbEntity
8
0
100
AcDbCircle
10
80.150830908650306
20
-373.36909738049235
30
0
40
1.6499999999999915
210
0
220
-1.0675965022082459e-46
230
1
0
CIRCLE
5
115
100
AcDbEntity
8
0
100
AcDbCircle
10
-179.13827217495989
20
-123.5057709834895
30
0
40
1.6499999999999915
210
0
220
-1.0675965022082459e-46
230
1
0
CIRCLE
5
116
100
AcDbEntity
8
0
100
AcDbCircle
10
-83.54352692218562
20
-229.08454875313481
30
3.5527136788005009e-14
40
1.6499999999999915
210
0
220
-1.0675965022082459e-46
230
1
0
CIRCLE
5
117
100
AcDbEntity
8
0
100
AcDbCircle
10
154.49988575446469
20
-93.499999999999815
30
3.5527136788005009e-14
40
1.6499999999999915
210
0
220
-1.0675965022082459e-46
230
1
0
CIRCLE
5
118
100
AcDbEntity
8
0
100
AcDbCircle
10
154.49988575446483
20
-230.00000000000156
30
3.5527136788005009e-14
40
1.6499999999999915
210
0
220
-1.0675965022082459e-46
230
1
0
CIRCLE
5
119
100
AcDbEntity
8
0
100
AcDbCircle
10
65.999885754464756
20
-258.97404810620645
30
0
40
1.6499999999999826
210
0
220
-1.0675965022082459e-46
230
1
0
CIRCLE
5
120
100
AcDbEntity
8
0
100
AcDbCircle
10
110.99988575446474
20
-258.97404810620645
30
0
40
1.6499999999999915
210
0
220
-1.0675965022082459e-46
230
1
0
ENDSEC
0
SECTION
2
OBJECTS
0
DICTIONARY
5
C
100
AcDbDictionary
3
ACAD_GROUP
350
D
3
ACAD_MLINESTYLE
350
17
0
DICTIONARY
5
D
100
AcDbDictionary
0
DICTIONARY
5
1A
330
C
100
AcDbDictionary
0
DICTIONARY
5
17
100
AcDbDictionary
0
ENDSEC
0
EOF
