0
SECTION
2
HEADER
9
$INSUNITS
70
4
9
$ACADVER
1
AC1014
9
$HANDSEED
5
FFFF
0
ENDSEC
0
SECTION
2
TABLES
0
TABLE
2
VPORT
5
8
100
AcDbSymbolTable
0
ENDTAB
0
TABLE
2
LTYPE
5
5
100
AcDbSymbolTable
0
LTYPE
5
14
100
AcDbSymbolTableRecord
100
AcDbLinetypeTableRecord
2
BYBLOCK
70
0
0
LTYPE
5
15
100
AcDbSymbolTableRecord
100
AcDbLinetypeTableRecord
2
BYLAYER
70
0
0
ENDTAB
0
TABLE
2
LAYER
5
2
100
AcDbSymbolTable
70
2
0
LAYER
5
50
100
AcDbSymbolTableRecord
100
AcDbLayerTableRecord
2
0
70
0
6
CONTINUOUS
0
ENDTAB
0
TABLE
2
STYLE
5
3
100
AcDbSymbolTable
70
1
0
STYLE
5
11
100
AcDbSymbolTableRecord
100
AcDbTextStyleTableRecord
2
STANDARD
70
0
0
ENDTAB
0
TABLE
2
VIEW
5
6
100
AcDbSymbolTable
70
0
0
ENDTAB
0
TABLE
2
UCS
5
7
100
AcDbSymbolTable
70
0
0
ENDTAB
0
TABLE
2
APPID
5
9
100
AcDbSymbolTable
70
2
0
APPID
5
12
100
AcDbSymbolTableRecord
100
AcDbRegAppTableRecord
2
ACAD
70
0
0
ENDTAB
0
TABLE
2
DIMSTYLE
5
A
100
AcDbSymbolTable
70
1
0
ENDTAB
0
TABLE
2
BLOCK_RECORD
5
1
100
AcDbSymbolTable
70
1
0
BLOCK_RECORD
5
1F
100
AcDbSymbolTableRecord
100
AcDbBlockTableRecord
2
*MODEL_SPACE
0
BLOCK_RECORD
5
1B
100
AcDbSymbolTableRecord
100
AcDbBlockTableRecord
2
*PAPER_SPACE
0
ENDTAB
0
ENDSEC
0
SECTION
2
BLOCKS
0
BLOCK
5
20
100
AcDbEntity
100
AcDbBlockBegin
2
*MODEL_SPACE
0
ENDBLK
5
21
100
AcDbEntity
100
AcDbBlockEnd
0
BLOCK
5
1C
100
AcDbEntity
100
AcDbBlockBegin
2
*PAPER_SPACE
0
ENDBLK
5
1D
100
AcDbEntity
100
AcDbBlockEnd
0
ENDSEC
0
SECTION
2
ENTITIES
0
LWPOLYLINE
5
100
100
AcDbEntity
8
0
100
AcDbPolyline
90
24
70
1
43
0.0
10
-196.99999999999926
20
-532.50000000000045
42
-0.41421356237310336
10
-201.99999999999926
20
-527.50000000000045
10
-201.99999999999926
20
-519.50000000000045
42
0.41421356237309509
10
-206.99999999999926
20
-514.50000000000045
10
-226.99999999999935
20
-514.50000000000045
42
-0.41421356237310125
10
-231.99999999999935
20
-509.50000000000045
10
-231.99999999999932
20
-23.000000000000007
42
-0.41421356237309243
10
-226.99999999999935
20
-18.000000000000007
10
-198.99999999999923
20
-18.000000000000007
42
0.41421356237309509
10
-193.99999999999923
20
-13.000000000000007
10
-193.99999999999926
20
-5
42
-0.41421356237309437
10
-188.99999999999926
20
0
10
197.28486500000082
20
-1.3322676295501878e-14
42
-0.41421356237309426
10
202.28486500000082
20
-5
10
202.28486500000082
20
-13.000000000000007
42
0.41421356237309509
10
207.28486500000082
20
-18.000000000000007
10
227.00000000000063
20
-18.000000000000004
42
-0.4142135623730932
10
232.00000000000063
20
-22.999999999999972
10
232.0000000000006
20
-509.50000000000045
42
-0.41421356237310336
10
227.0000000000006
20
-514.50000000000045
10
207.00000000000074
20
-514.50000000000045
42
0.41421356237309509
10
202.00000000000074
20
-519.50000000000045
10
202.00000000000074
20
-527.50000000000045
42
-0.41421356237310336
10
197.00000000000074
20
-532.50000000000045
0
CIRCLE
5
101
100
AcDbEntity
8
0
100
AcDbCircle
10
86.10483702828644
20
-438.86909739067119
30
0
40
41.999984061710038
210
0
220
0
230
1
0
CIRCLE
5
102
100
AcDbEntity
8
0
100
AcDbCircle
10
-214.99999999999937
20
-65
30
0
40
2.6249999999999929
210
0
220
-0
230
1
0
CIRCLE
5
103
100
AcDbEntity
8
0
100
AcDbCircle
10
0
20
-522.50000000000034
30
0
40
2.625
210
0
220
-0
230
1
0
CIRCLE
5
104
100
AcDbEntity
8
0
100
AcDbCircle
10
24.528909145945782
20
-373.36909779610039
30
0
40
1.6499999999999915
210
0
220
-0
230
1
0
CIRCLE
5
105
100
AcDbEntity
8
0
100
AcDbCircle
10
65.999885754464586
20
-258.9740481062064
30
0
40
1.6499999999999826
210
0
220
-0
230
1
0
CIRCLE
5
106
100
AcDbEntity
8
0
100
AcDbCircle
10
-179.13827217496006
20
-123.50577098348941
30
0
40
1.6499999999999915
210
0
220
-0
230
1
0
CIRCLE
5
107
100
AcDbEntity
8
0
100
AcDbCircle
10
-214.99999999999937
20
-465
30
0
40
2.6249999999999929
210
0
220
-0
230
1
0
CIRCLE
5
108
100
AcDbEntity
8
0
100
AcDbCircle
10
80.150830908650121
20
-373.36909738049229
30
0
40
1.6499999999999915
210
0
220
-0
230
1
0
CIRCLE
5
109
100
AcDbEntity
8
0
100
AcDbCircle
10
110.99988575446457
20
-258.9740481062064
30
0
40
1.6499999999999915
210
0
220
-0
230
1
0
CIRCLE
5
110
100
AcDbEntity
8
0
100
AcDbCircle
10
215.0000000000008
20
-265
30
0
40
2.6249999999999929
210
0
220
-0
230
1
0
CIRCLE
5
111
100
AcDbEntity
8
0
100
AcDbCircle
10
-214.99999999999937
20
-165
30
0
40
2.6249999999999929
210
0
220
-0
230
1
0
CIRCLE
5
112
100
AcDbEntity
8
0
100
AcDbCircle
10
38.604837373957615
20
-491.36909770342135
30
0
40
2.1500000000000026
210
0
220
-0
230
1
0
CIRCLE
5
113
100
AcDbEntity
8
0
100
AcDbCircle
10
154.49988575446451
20
-93.499999999999744
30
0
40
1.6499999999999915
210
0
220
-0
230
1
0
CIRCLE
5
114
100
AcDbEntity
8
0
100
AcDbCircle
10
215.0000000000008
20
-365
30
0
40
2.6249999999999929
210
0
220
-0
230
1
0
CIRCLE
5
115
100
AcDbEntity
8
0
100
AcDbCircle
10
154.49988575446451
20
-373.86909694034318
30
0
40
1.6499999999999915
210
0
220
-0
230
1
0
CIRCLE
5
116
100
AcDbEntity
8
0
100
AcDbCircle
10
154.49988575446466
20
-230.00000000000148
30
0
40
1.6499999999999915
210
0
220
-0
230
1
0
CIRCLE
5
117
100
AcDbEntity
8
0
100
AcDbCircle
10
-214.99999999999937
20
-265
30
0
40
2.6249999999999929
210
0
220
-0
230
1
0
CIRCLE
5
118
100
AcDbEntity
8
0
100
AcDbCircle
10
-180
20
-522.50000000000034
30
0
40
2.6249999999999929
210
0
220
-0
230
1
0
CIRCLE
5
119
100
AcDbEntity
8
0
100
AcDbCircle
10
215.0000000000008
20
-65
30
0
40
2.6249999999999929
210
0
220
-0
230
1
0
CIRCLE
5
120
100
AcDbEntity
8
0
100
AcDbCircle
10
154.49988575446451
20
-237.36909694034307
30
0
40
1.6499999999999915
210
0
220
-0
230
1
0
CIRCLE
5
121
100
AcDbEntity
8
0
100
AcDbCircle
10
215.0000000000008
20
-165
30
0
40
2.6249999999999929
210
0
220
-0
230
1
0
CIRCLE
5
122
100
AcDbEntity
8
0
100
AcDbCircle
10
-90
20
-522.50000000000034
30
0
40
2.6249999999999929
210
0
220
-0
230
1
0
CIRCLE
5
123
100
AcDbEntity
8
0
100
AcDbCircle
10
90
20
-522.50000000000034
30
0
40
2.6249999999999929
210
0
220
-0
230
1
0
CIRCLE
5
124
100
AcDbEntity
8
0
100
AcDbCircle
10
38.604836682615222
20
-386.36909770342129
30
0
40
2.1500000000000026
210
0
220
-0
230
1
0
CIRCLE
5
125
100
AcDbEntity
8
0
100
AcDbCircle
10
-214.99999999999937
20
-365
30
0
40
2.6249999999999929
210
0
220
-0
230
1
0
CIRCLE
5
126
100
AcDbEntity
8
0
100
AcDbCircle
10
-78.35113610017234
20
-238.28454887905525
30
0
40
1.6500000000000004
210
0
220
-0
230
1
0
CIRCLE
5
127
100
AcDbEntity
8
0
100
AcDbCircle
10
-83.543526922185777
20
-229.08454875313475
30
0
40
1.6499999999999915
210
0
220
-0
230
1
0
CIRCLE
5
128
100
AcDbEntity
8
0
100
AcDbCircle
10
143.60483737395759
20
-491.36909701207901
30
0
40
2.1499999999999986
210
0
220
-0
230
1
0
ENDSEC
0
SECTION
2
OBJECTS
0
DICTIONARY
5
C
100
AcDbDictionary
3
ACAD_GROUP
350
D
3
ACAD_MLINESTYLE
350
17
0
DICTIONARY
5
D
100
AcDbDictionary
0
DICTIONARY
5
1A
330
C
100
AcDbDictionary
0
DICTIONARY
5
17
100
AcDbDictionary
0
ENDSEC
0
EOF
