0
SECTION
2
HEADER
9
$INSUNITS
70
4
9
$ACADVER
1
AC1014
9
$HANDSEED
5
FFFF
0
ENDSEC
0
SECTION
2
TABLES
0
TABLE
2
VPORT
5
8
100
AcDbSymbolTable
0
ENDTAB
0
TABLE
2
LTYPE
5
5
100
AcDbSymbolTable
0
LTYPE
5
14
100
AcDbSymbolTableRecord
100
AcDbLinetypeTableRecord
2
BYBLOCK
70
0
0
LTYPE
5
15
100
AcDbSymbolTableRecord
100
AcDbLinetypeTableRecord
2
BYLAYER
70
0
0
ENDTAB
0
TABLE
2
LAYER
5
2
100
AcDbSymbolTable
70
2
0
LAYER
5
50
100
AcDbSymbolTableRecord
100
AcDbLayerTableRecord
2
0
70
0
6
CONTINUOUS
0
ENDTAB
0
TABLE
2
STYLE
5
3
100
AcDbSymbolTable
70
1
0
STYLE
5
11
100
AcDbSymbolTableRecord
100
AcDbTextStyleTableRecord
2
STANDARD
70
0
0
ENDTAB
0
TABLE
2
VIEW
5
6
100
AcDbSymbolTable
70
0
0
ENDTAB
0
TABLE
2
UCS
5
7
100
AcDbSymbolTable
70
0
0
ENDTAB
0
TABLE
2
APPID
5
9
100
AcDbSymbolTable
70
2
0
APPID
5
12
100
AcDbSymbolTableRecord
100
AcDbRegAppTableRecord
2
ACAD
70
0
0
ENDTAB
0
TABLE
2
DIMSTYLE
5
A
100
AcDbSymbolTable
70
1
0
ENDTAB
0
TABLE
2
BLOCK_RECORD
5
1
100
AcDbSymbolTable
70
1
0
BLOCK_RECORD
5
1F
100
AcDbSymbolTableRecord
100
AcDbBlockTableRecord
2
*MODEL_SPACE
0
BLOCK_RECORD
5
1B
100
AcDbSymbolTableRecord
100
AcDbBlockTableRecord
2
*PAPER_SPACE
0
ENDTAB
0
ENDSEC
0
SECTION
2
BLOCKS
0
BLOCK
5
20
100
AcDbEntity
100
AcDbBlockBegin
2
*MODEL_SPACE
0
ENDBLK
5
21
100
AcDbEntity
100
AcDbBlockEnd
0
BLOCK
5
1C
100
AcDbEntity
100
AcDbBlockBegin
2
*PAPER_SPACE
0
ENDBLK
5
1D
100
AcDbEntity
100
AcDbBlockEnd
0
ENDSEC
0
SECTION
2
ENTITIES
0
LINE
5
100
100
AcDbEntity
8
0
100
AcDbLine
10
-325.84999994434725
20
261.80000000081287
30
0
11
-325.84999994435287
21
-302.50000000022715
31
0
0
ARC
5
101
100
AcDbEntity
8
0
100
AcDbCircle
10
-322.84999994435304
20
-302.50000000022726
30
0
40
2.9999999999998295
210
0
220
0
230
1
100
AcDbArc
50
180
51
270.00000000000222
0
LINE
5
102
100
AcDbEntity
8
0
100
AcDbLine
10
-322.84999994435293
20
-305.50000000022715
30
0
11
322.84999994434253
21
-305.50000000021834
31
0
0
ARC
5
103
100
AcDbEntity
8
0
100
AcDbCircle
10
322.84999994434247
20
-302.50000000021834
30
0
40
3.0000000000000071
210
0
220
0
230
1
100
AcDbArc
50
-89.999999999998934
51
0
0
LINE
5
104
100
AcDbEntity
8
0
100
AcDbLine
10
325.84999994434241
20
-302.50000000021834
30
0
11
325.84999994434435
21
261.80000000081282
31
0
0
ARC
5
105
100
AcDbEntity
8
0
100
AcDbCircle
10
-322.84999994434725
20
261.80000000081287
30
0
40
2.9999999999999716
210
0
220
-0
230
1
100
AcDbArc
50
90
51
180
0
ARC
5
106
100
AcDbEntity
8
0
100
AcDbCircle
10
322.84999994434452
20
261.80000000081299
30
0
40
2.9999999999998295
210
0
220
0
230
1
100
AcDbArc
50
0
51
90.000000000003254
0
LINE
5
107
100
AcDbEntity
8
0
100
AcDbLine
10
322.84999994434435
20
264.80000000081282
30
0
11
-322.84999994434736
21
264.80000000081282
31
0
0
LWPOLYLINE
5
108
100
AcDbEntity
8
0
100
AcDbPolyline
90
4
70
1
43
0.0
10
-2.3437500000000329
20
-4.1842369100508474
42
0.99999999999999989
10
-2.6562500000000329
20
-2.2088018313909585
42
0.32502293867170751
10
-16.791198168609114
20
-16.34375000000011
42
1.0000000105367119
10
-14.815763089949225
20
-16.656250000000096
42
-0.32502293867170745
0
LWPOLYLINE
5
109
100
AcDbEntity
8
0
100
AcDbPolyline
90
4
70
1
43
0.0
10
2.6562499999999654
20
-35.791198168609085
42
0.34407680501802584
10
16.933694221876081
20
-20.500000000000007
10
14.924811556599273
20
-20.500000000000014
42
-0.34077608553572108
10
2.343749999999964
20
-33.815763089949193
42
1.0000000105367119
0
LWPOLYLINE
5
110
100
AcDbEntity
8
0
100
AcDbPolyline
90
4
70
1
43
0.0
10
-14.815763089949209
20
-21.343750000000004
42
0.34077608553572108
10
-1.5000000000000433
20
-33.924811556599323
10
-1.5000000000000342
20
-35.933694221876131
42
-0.34407680501802584
10
-16.791198168609103
20
-21.656250000000014
42
-0.99999999999999989
0
LWPOLYLINE
5
111
100
AcDbEntity
8
0
100
AcDbPolyline
90
4
70
1
43
0.0
10
16.791198168609036
20
-16.343750000000028
42
0.32502293867170623
10
2.6562499999999636
20
-2.2088018313909541
42
0.99999999999999989
10
2.3437499999999649
20
-4.1842369100508447
42
-0.32502293867170629
10
14.81576308994914
20
-16.656250000000036
42
0.99999999999999989
0
CIRCLE
5
112
100
AcDbEntity
8
0
100
AcDbCircle
10
2.1362822507527339e-14
20
238.80000000029884
30
0
40
2.6499999999999946
210
0
220
-0
230
1
0
LWPOLYLINE
5
113
100
AcDbEntity
8
0
100
AcDbPolyline
90
4
70
1
43
0.0
10
-298.93992478809821
20
-224.15535918029366
10
-300.85530610658139
20
-227.08474724007783
42
-0.99999999999999989
10
-306.12820461380574
20
-223.637060867061
10
-304.21282332100981
20
-220.70767284656307
42
-1.0000000074505804
0
LWPOLYLINE
5
114
100
AcDbEntity
8
0
100
AcDbPolyline
90
4
70
1
43
0.0
10
-305.41966537488122
20
179.6359583069729
10
-301.99045791034416
20
180.33634141194781
42
-0.9999999925494194
10
-300.72976838421164
20
174.16376804867383
10
-304.15897580275941
20
173.46338495309166
42
-0.99999999999999989
0
LWPOLYLINE
5
115
100
AcDbEntity
8
0
100
AcDbPolyline
90
4
70
1
43
0.0
10
-270.5
20
241.45000000029884
10
-266.99999999999994
20
241.45000000029884
42
-0.99999999999999989
10
-266.99999999999994
20
236.15000000029883
10
-270.5
20
236.15000000029883
42
-0.99999999999999989
0
LWPOLYLINE
5
116
100
AcDbEntity
8
0
100
AcDbPolyline
90
4
70
1
43
0.0
10
-297.50932785772699
20
-122.56527937406528
10
-299.7520554034304
20
-125.25231736332844
42
-0.99999999999999989
10
-304.58872378404351
20
-121.21540778111284
10
-302.34599623834009
20
-118.52836979184983
42
-0.99999999999999989
0
LWPOLYLINE
5
117
100
AcDbEntity
8
0
100
AcDbPolyline
90
4
70
1
43
0.0
10
-266.97138713785967
20
-285.50000207058764
10
-268.57621339133311
20
-288.61039310188795
42
-0.99999999999999989
10
-274.17491736580234
20
-285.72170589032248
10
-272.57009106928433
20
-282.61131477559536
42
-0.99999999999999989
0
LWPOLYLINE
5
118
100
AcDbEntity
8
0
100
AcDbPolyline
90
4
70
1
43
0.0
10
-303.77787530967913
20
79.690825961280225
42
0.9999999925494194
10
-300.80367183558951
20
74.137078244594178
10
-297.71825643762151
20
75.78941350800828
42
0.99999999999999989
10
-300.69245991158385
20
81.343161224232688
0
LWPOLYLINE
5
119
100
AcDbEntity
8
0
100
AcDbPolyline
90
4
70
1
43
0.0
10
-132
20
236.15000000029883
10
-135.5
20
236.15000000029883
42
-0.99999999999999989
10
-135.5
20
241.45000000029884
10
-132
20
241.45000000029884
42
-0.99999999999999989
0
LWPOLYLINE
5
120
100
AcDbEntity
8
0
100
AcDbPolyline
90
4
70
1
43
0.0
10
-297.51986482453907
20
-23.265246729147186
10
-300.16457420491616
20
-25.557737070408773
42
-1.0000000074505804
10
-304.29105690998699
20
-20.797260152643062
10
-301.64634749414341
20
-18.504769780636011
42
-0.99999999999999989
0
LWPOLYLINE
5
121
100
AcDbEntity
8
0
100
AcDbPolyline
90
4
70
1
43
0.0
10
-131.8249629160789
20
-284.80272019873644
42
0.9999999925494194
10
-137.92523741300582
20
-283.22898227197004
10
-138.79953627293457
20
-286.61802370460197
42
0.99999998509883881
10
-132.69926176428248
20
-288.19176158591836
0
LWPOLYLINE
5
122
100
AcDbEntity
8
0
100
AcDbPolyline
90
4
70
1
43
0.0
10
300.85530610658139
20
-227.08474724007783
10
298.93992481378541
20
-224.15535921957982
42
-1.0000000074505804
10
304.21282329532255
20
-220.70767280727691
10
306.12820461380574
20
-223.637060867061
42
-0.99999999999999989
0
LWPOLYLINE
5
123
100
AcDbEntity
8
0
100
AcDbPolyline
90
4
70
1
43
0.0
10
301.99045795633339
20
180.33634140255492
10
305.41966545453312
20
179.63595829068566
42
-0.99999998709521598
10
304.15897580276317
20
173.46338495311002
10
300.72976838421164
20
174.16376804867383
42
-0.99999999999999989
0
LWPOLYLINE
5
124
100
AcDbEntity
8
0
100
AcDbPolyline
90
4
70
1
43
0.0
10
266.99999999999994
20
241.45000000029884
10
270.5
20
241.45000000029884
42
-0.99999999999999989
10
270.5
20
236.15000000029883
10
266.99999999999994
20
236.15000000029883
42
-0.99999999999999989
0
LWPOLYLINE
5
125
100
AcDbEntity
8
0
100
AcDbPolyline
90
4
70
1
43
0.0
10
299.7520554034304
20
-125.25231736332844
10
297.50932785772699
20
-122.56527937406528
42
-0.99999999999999989
10
302.34599623834009
20
-118.52836979184983
10
304.58872378404351
20
-121.21540778111284
42
-0.99999999999999989
0
LWPOLYLINE
5
126
100
AcDbEntity
8
0
100
AcDbPolyline
90
4
70
1
43
0.0
10
268.57621341285545
20
-288.61039314360158
10
266.97138713785967
20
-285.50000207058764
42
-0.99999999999999989
10
272.57009106928433
20
-282.61131477559536
10
274.17491734428
20
-285.72170584860891
42
-0.99999999999999989
0
LWPOLYLINE
5
127
100
AcDbEntity
8
0
100
AcDbPolyline
90
4
70
1
43
0.0
10
300.80367183549635
20
74.137078244644073
42
0.99999999999999989
10
303.7778753097723
20
79.690825961230331
10
300.69245991158385
20
81.343161224232688
42
0.99999999999999989
10
297.71825643762151
20
75.789413508008295
0
LWPOLYLINE
5
128
100
AcDbEntity
8
0
100
AcDbPolyline
90
4
70
1
43
0.0
10
135.5
20
236.15000000029883
10
132
20
236.15000000029883
42
-0.99999999999999989
10
132
20
241.45000000029884
10
135.5
20
241.45000000029884
42
-0.99999999999999989
0
LWPOLYLINE
5
129
100
AcDbEntity
8
0
100
AcDbPolyline
90
4
70
1
43
0.0
10
300.16457424038441
20
-25.557737101153464
10
297.51986482453896
20
-23.265246729147194
42
-0.99999999999999989
10
301.64634749414341
20
-18.504769780636003
10
304.29105687451874
20
-20.797260121898372
42
-1.0000000074505804
0
LWPOLYLINE
5
130
100
AcDbEntity
8
0
100
AcDbPolyline
90
4
70
1
43
0.0
10
137.92523741300582
20
-283.22898227197004
42
0.9999999925494194
10
131.8249629160789
20
-284.80272019873644
10
132.69926176428248
20
-288.19176158591836
42
0.99999998509883881
10
138.79953627293457
20
-286.61802370460197
0
LWPOLYLINE
5
131
100
AcDbEntity
8
0
100
AcDbPolyline
90
4
70
1
43
0.0
10
-2.6499999999999799
20
-285.00000000495061
42
0.99999999999999989
10
2.6500000000000226
20
-285.00000000495061
10
2.6500000000000234
20
-281.50000000495066
42
0.99999999999999989
10
-2.6499999999999817
20
-281.50000000495066
0
LWPOLYLINE
5
132
100
AcDbEntity
8
0
100
AcDbPolyline
90
8
70
1
43
0.0
10
147.5
20
-261.50000000495061
42
0.414213562373069
10
146.5
20
-260.50000000495055
10
137.5
20
-260.50000000495055
42
-0.99999999999999989
10
137.5
20
-258.50000000495055
10
148.5
20
-258.50000000495061
42
-0.41421356237309509
10
149.5
20
-259.50000000495055
10
149.5
20
-301.5000000002272
42
-0.99999999999999989
10
147.5
20
-301.50000000022726
0
LWPOLYLINE
5
133
100
AcDbEntity
8
0
100
AcDbPolyline
90
8
70
1
43
0.0
10
123.5
20
-260.50000000495055
42
0.41421356237305862
10
122.5
20
-261.50000000495055
10
122.5
20
-301.5000000002272
42
-0.99999999999999989
10
120.5
20
-301.50000000022726
10
120.49999999999999
20
-259.50000000495055
42
-0.41421356237309509
10
121.5
20
-258.50000000495055
10
132.5
20
-258.50000000495055
42
-0.99999999999999989
10
132.5
20
-260.50000000495055
0
LWPOLYLINE
5
134
100
AcDbEntity
8
0
100
AcDbPolyline
90
8
70
1
43
0.0
10
122.5
20
215.80000000029895
42
0.414213562373069
10
123.5
20
214.80000000029892
10
132.5
20
214.80000000029895
42
-0.99999999999999989
10
132.5
20
212.80000000029895
10
121.5
20
212.80000000029895
42
-0.41421356237309509
10
120.5
20
213.80000000029895
10
120.5
20
260.80000000081282
42
-0.99999999999999989
10
122.5
20
260.80000000081276
0
LWPOLYLINE
5
135
100
AcDbEntity
8
0
100
AcDbPolyline
90
8
70
1
43
0.0
10
146.5
20
214.80000000029892
42
0.41421356237305862
10
147.5
20
215.80000000029889
10
147.5
20
260.80000000081276
42
-0.99999999999999989
10
149.5
20
260.80000000081276
10
149.5
20
213.80000000029895
42
-0.4142135623731002
10
148.49999999999997
20
212.80000000029895
10
137.5
20
212.80000000029889
42
-0.99999999999999989
10
137.5
20
214.80000000029892
0
LWPOLYLINE
5
136
100
AcDbEntity
8
0
100
AcDbPolyline
90
8
70
1
43
0.0
10
-146.5
20
-260.50000000495055
42
0.41421356237305862
10
-147.5
20
-261.50000000495055
10
-147.5
20
-301.50000000022726
42
-0.99999999999999989
10
-149.5
20
-301.50000000022726
10
-149.5
20
-259.50000000495055
42
-0.41421356237309509
10
-148.49999999999997
20
-258.50000000495055
10
-137.5
20
-258.50000000495055
42
-0.99999999999999989
10
-137.5
20
-260.50000000495055
0
LWPOLYLINE
5
137
100
AcDbEntity
8
0
100
AcDbPolyline
90
8
70
1
43
0.0
10
-122.50000000000001
20
-261.50000000495061
42
0.41421356237307427
10
-123.50000000000001
20
-260.50000000495061
10
-132.5
20
-260.50000000495055
42
-0.99999999999999989
10
-132.5
20
-258.50000000495055
10
-121.5
20
-258.50000000495061
42
-0.41421356237309509
10
-120.5
20
-259.50000000495055
10
-120.5
20
-301.50000000022726
42
-0.99999999999999989
10
-122.5
20
-301.50000000022726
0
LWPOLYLINE
5
138
100
AcDbEntity
8
0
100
AcDbPolyline
90
8
70
1
43
0.0
10
-123.5
20
214.80000000029892
42
0.41421356237305862
10
-122.5
20
215.80000000029889
10
-122.5
20
260.80000000081282
42
-0.99999999999999989
10
-120.5
20
260.80000000081282
10
-120.5
20
213.80000000029895
42
-0.41421356237309509
10
-121.50000000000003
20
212.80000000029895
10
-132.5
20
212.80000000029889
42
-0.99999999999999989
10
-132.5
20
214.80000000029892
0
LWPOLYLINE
5
139
100
AcDbEntity
8
0
100
AcDbPolyline
90
8
70
1
43
0.0
10
-147.49999999999997
20
215.80000000029895
42
0.41421356237307427
10
-146.5
20
214.80000000029895
10
-137.5
20
214.80000000029895
42
-0.99999999999999989
10
-137.5
20
212.80000000029895
10
-148.49999999999997
20
212.80000000029895
42
-0.4142135623731002
10
-149.5
20
213.80000000029895
10
-149.5
20
260.80000000081282
42
-0.99999999999999989
10
-147.5
20
260.80000000081282
0
ENDSEC
0
SECTION
2
OBJECTS
0
DICTIONARY
5
C
100
AcDbDictionary
3
ACAD_GROUP
350
D
3
ACAD_MLINESTYLE
350
17
0
DICTIONARY
5
D
100
AcDbDictionary
0
DICTIONARY
5
1A
330
C
100
AcDbDictionary
0
DICTIONARY
5
17
100
AcDbDictionary
0
ENDSEC
0
EOF
