0
SECTION
2
HEADER
9
$INSUNITS
70
4
9
$ACADVER
1
AC1014
9
$HANDSEED
5
FFFF
0
ENDSEC
0
SECTION
2
TABLES
0
TABLE
2
VPORT
5
8
100
AcDbSymbolTable
0
ENDTAB
0
TABLE
2
LTYPE
5
5
100
AcDbSymbolTable
0
LTYPE
5
14
100
AcDbSymbolTableRecord
100
AcDbLinetypeTableRecord
2
BYBLOCK
70
0
0
LTYPE
5
15
100
AcDbSymbolTableRecord
100
AcDbLinetypeTableRecord
2
BYLAYER
70
0
0
ENDTAB
0
TABLE
2
LAYER
5
2
100
AcDbSymbolTable
70
2
0
LAYER
5
50
100
AcDbSymbolTableRecord
100
AcDbLayerTableRecord
2
0
70
0
6
CONTINUOUS
0
ENDTAB
0
TABLE
2
STYLE
5
3
100
AcDbSymbolTable
70
1
0
STYLE
5
11
100
AcDbSymbolTableRecord
100
AcDbTextStyleTableRecord
2
STANDARD
70
0
0
ENDTAB
0
TABLE
2
VIEW
5
6
100
AcDbSymbolTable
70
0
0
ENDTAB
0
TABLE
2
UCS
5
7
100
AcDbSymbolTable
70
0
0
ENDTAB
0
TABLE
2
APPID
5
9
100
AcDbSymbolTable
70
2
0
APPID
5
12
100
AcDbSymbolTableRecord
100
AcDbRegAppTableRecord
2
ACAD
70
0
0
ENDTAB
0
TABLE
2
DIMSTYLE
5
A
100
AcDbSymbolTable
70
1
0
ENDTAB
0
TABLE
2
BLOCK_RECORD
5
1
100
AcDbSymbolTable
70
1
0
BLOCK_RECORD
5
1F
100
AcDbSymbolTableRecord
100
AcDbBlockTableRecord
2
*MODEL_SPACE
0
BLOCK_RECORD
5
1B
100
AcDbSymbolTableRecord
100
AcDbBlockTableRecord
2
*PAPER_SPACE
0
ENDTAB
0
ENDSEC
0
SECTION
2
BLOCKS
0
BLOCK
5
20
100
AcDbEntity
100
AcDbBlockBegin
2
*MODEL_SPACE
0
ENDBLK
5
21
100
AcDbEntity
100
AcDbBlockEnd
0
BLOCK
5
1C
100
AcDbEntity
100
AcDbBlockBegin
2
*PAPER_SPACE
0
ENDBLK
5
1D
100
AcDbEntity
100
AcDbBlockEnd
0
ENDSEC
0
SECTION
2
ENTITIES
0
LWPOLYLINE
5
100
100
AcDbEntity
8
0
100
AcDbPolyline
90
8
70
1
43
0.0
10
-256.3000000002865
20
-587.79999999999268
10
301.5000000049269
20
-587.80000000000177
42
0.4142135623730881
10
304.50000000492696
20
-584.80000000000177
10
304.50000000491934
20
166.49999999999849
42
0.41421356237309509
10
301.50000000491929
20
169.49999999999847
10
-256.30000000028645
20
169.49999999999847
42
0.41421356237309853
10
-259.30000000028645
20
166.49999999999829
10
-259.30000000028639
20
-584.79999999999279
42
0.41421356237308121
0
LWPOLYLINE
5
101
100
AcDbEntity
8
0
100
AcDbPolyline
90
4
70
1
43
0.0
10
-247.800000000268
20
111.99999999999386
10
-247.80000000029281
20
146.99999999999565
42
-0.99999999999999989
10
-227.80000000029281
20
147.00000000000625
10
-227.80000000026806
20
112.00000000000804
42
-0.99999999999999989
0
LWPOLYLINE
5
102
100
AcDbEntity
8
0
100
AcDbPolyline
90
4
70
1
43
0.0
10
259.69999999972123
20
152.65000000000674
42
0.99999999999999989
10
259.69999999972123
20
147.34999999999724
10
263.19999999972129
20
147.34999999999715
42
0.99999999999999989
10
263.19999999972129
20
152.65000000000683
0
LWPOLYLINE
5
103
100
AcDbEntity
8
0
100
AcDbPolyline
90
4
70
1
43
0.0
10
286.57821809358086
20
67.30437726477976
42
0.99999999999999989
10
287.4094078073569
20
72.538794487338038
10
283.95271718869259
20
73.08769335492488
42
0.99999999999999989
10
283.1215274749166
20
67.853276132366602
0
CIRCLE
5
104
100
AcDbEntity
8
0
100
AcDbCircle
10
-237.80000000027684
20
69.999999999999886
30
0
40
2.6500000000000057
210
0
220
0
230
1
0
LWPOLYLINE
5
105
100
AcDbEntity
8
0
100
AcDbPolyline
90
4
70
1
43
0.0
10
23.199999999721225
20
147.34999999999715
42
0.99999999999999989
10
23.199999999721225
20
152.65000000000683
10
19.699999999721246
20
152.65000000000674
42
0.99999999999999989
10
19.699999999721246
20
147.34999999999715
0
CIRCLE
5
106
100
AcDbEntity
8
0
100
AcDbCircle
10
-217.30000000027877
20
150.00000000000199
30
0
40
2.6500000000000057
210
0
220
0
230
1
0
LWPOLYLINE
5
107
100
AcDbEntity
8
0
100
AcDbPolyline
90
4
70
1
43
0.0
10
-240.45000000792268
20
-530.49999999999932
10
-240.45000000792163
20
-526.9999999999992
42
-0.99999999999999989
10
-235.14999999263034
20
-527.00000000000068
10
-235.14999999263128
20
-530.5000000000008
42
-0.99999999999999989
0
LWPOLYLINE
5
108
100
AcDbEntity
8
0
100
AcDbPolyline
90
4
70
1
43
0.0
10
-240.45000001403562
20
-130.50000000001106
10
-240.45000001405009
20
-127.000000000011
42
-0.99999999999999989
10
-235.1499999865282
20
-126.9999999999892
10
-235.14999998651379
20
-130.49999999998917
42
-0.99999999999999989
0
LWPOLYLINE
5
109
100
AcDbEntity
8
0
100
AcDbPolyline
90
4
70
1
43
0.0
10
-235.14999999260533
20
-326.99999999993628
42
0.99999999999999989
10
-240.45000000794596
20
-327.00000000006406
10
-240.45000000790702
20
-330.50000000006094
42
0.99999999999999989
10
-235.14999999264714
20
-330.4999999999394
0
LWPOLYLINE
5
110
100
AcDbEntity
8
0
100
AcDbPolyline
90
4
70
1
43
0.0
10
285.40801295619838
20
-125.78929171116926
10
288.4672769874191
20
-127.48955754848541
42
-0.9999999925494194
10
285.40679847984416
20
-132.99623270695889
10
282.34753448990779
20
-131.29596689298043
42
-0.99999999999999989
0
LWPOLYLINE
5
111
100
AcDbEntity
8
0
100
AcDbPolyline
90
4
70
1
43
0.0
10
286.50086224898666
20
-325.65000008507099
42
0.99999999999999989
10
282.15513046314226
20
-330.21120773863487
10
284.68913468070997
20
-332.62550314242844
42
1.0000000129047839
10
289.03486650053799
20
-328.06429552124268
0
LWPOLYLINE
5
112
100
AcDbEntity
8
0
100
AcDbPolyline
90
4
70
1
43
0.0
10
256.6640632715114
20
-561.17161221778701
10
254.71231736760612
20
-558.26632595733702
42
-0.99999999999999989
10
259.94183256617652
20
-554.75318337724798
10
261.89357841772932
20
-557.65846955977383
42
-0.99999999999999989
0
LWPOLYLINE
5
113
100
AcDbEntity
8
0
100
AcDbPolyline
90
4
70
1
43
0.0
10
26.188510179579655
20
-560.50599633527372
10
25.039972219191856
20
-557.19981113877486
42
-0.99999999999999989
10
30.991105572889882
20
-555.13244281007678
10
32.139643533277692
20
-558.43862800657564
42
-0.99999999999999989
0
ENDSEC
0
SECTION
2
OBJECTS
0
DICTIONARY
5
C
100
AcDbDictionary
3
ACAD_GROUP
350
D
3
ACAD_MLINESTYLE
350
17
0
DICTIONARY
5
D
100
AcDbDictionary
0
DICTIONARY
5
1A
330
C
100
AcDbDictionary
0
DICTIONARY
5
17
100
AcDbDictionary
0
ENDSEC
0
EOF
