0
SECTION
2
HEADER
9
$INSUNITS
70
4
9
$ACADVER
1
AC1014
9
$HANDSEED
5
FFFF
0
ENDSEC
0
SECTION
2
TABLES
0
TABLE
2
VPORT
5
8
100
AcDbSymbolTable
0
ENDTAB
0
TABLE
2
LTYPE
5
5
100
AcDbSymbolTable
0
LTYPE
5
14
100
AcDbSymbolTableRecord
100
AcDbLinetypeTableRecord
2
BYBLOCK
70
0
0
LTYPE
5
15
100
AcDbSymbolTableRecord
100
AcDbLinetypeTableRecord
2
BYLAYER
70
0
0
ENDTAB
0
TABLE
2
LAYER
5
2
100
AcDbSymbolTable
70
2
0
LAYER
5
50
100
AcDbSymbolTableRecord
100
AcDbLayerTableRecord
2
0
70
0
6
CONTINUOUS
0
ENDTAB
0
TABLE
2
STYLE
5
3
100
AcDbSymbolTable
70
1
0
STYLE
5
11
100
AcDbSymbolTableRecord
100
AcDbTextStyleTableRecord
2
STANDARD
70
0
0
ENDTAB
0
TABLE
2
VIEW
5
6
100
AcDbSymbolTable
70
0
0
ENDTAB
0
TABLE
2
UCS
5
7
100
AcDbSymbolTable
70
0
0
ENDTAB
0
TABLE
2
APPID
5
9
100
AcDbSymbolTable
70
2
0
APPID
5
12
100
AcDbSymbolTableRecord
100
AcDbRegAppTableRecord
2
ACAD
70
0
0
ENDTAB
0
TABLE
2
DIMSTYLE
5
A
100
AcDbSymbolTable
70
1
0
ENDTAB
0
TABLE
2
BLOCK_RECORD
5
1
100
AcDbSymbolTable
70
1
0
BLOCK_RECORD
5
1F
100
AcDbSymbolTableRecord
100
AcDbBlockTableRecord
2
*MODEL_SPACE
0
BLOCK_RECORD
5
1B
100
AcDbSymbolTableRecord
100
AcDbBlockTableRecord
2
*PAPER_SPACE
0
ENDTAB
0
ENDSEC
0
SECTION
2
BLOCKS
0
BLOCK
5
20
100
AcDbEntity
100
AcDbBlockBegin
2
*MODEL_SPACE
0
ENDBLK
5
21
100
AcDbEntity
100
AcDbBlockEnd
0
BLOCK
5
1C
100
AcDbEntity
100
AcDbBlockBegin
2
*PAPER_SPACE
0
ENDBLK
5
1D
100
AcDbEntity
100
AcDbBlockEnd
0
ENDSEC
0
SECTION
2
ENTITIES
0
LINE
5
100
100
AcDbEntity
8
0
100
AcDbLine
10
-301.50000000493384
20
-587.80000000000177
30
0
11
256.3000000002807
21
-587.79999999999268
31
0
0
LINE
5
101
100
AcDbEntity
8
0
100
AcDbLine
10
256.30000000028065
20
169.49999999999835
30
0
11
-301.50000000492514
21
169.49999999999847
31
0
0
LWPOLYLINE
5
102
100
AcDbEntity
8
0
100
AcDbPolyline
90
12
70
1
43
0.0
10
-234.11691241971829
20
-527.07456077269694
42
0.31576057272468899
10
-229.50000000495243
20
-520.49269982300302
10
-229.50000000495282
20
-499.50730017699692
42
0.31576057272466601
10
-234.11691241971906
20
-492.92543922730329
10
-258.11691241971926
20
-484.23578405489002
42
0.17546105015070917
10
-262.88308759018713
20
-484.23578405489013
10
-286.88308759018702
20
-492.92543922730442
42
0.31576057272466873
10
-291.50000000495282
20
-499.5073001769984
10
-291.50000000495243
20
-520.49269982300439
42
0.31576057272467978
10
-286.88308759018611
20
-527.07456077269808
10
-262.88308759018599
20
-535.76421594511135
42
0.17546105015067479
10
-258.11691241971806
20
-535.76421594511123
0
ARC
5
103
100
AcDbEntity
8
0
100
AcDbCircle
10
256.30000000028059
20
166.49999999999832
30
0
40
3.0000000000000426
210
-0
220
0
230
1
100
AcDbArc
50
0
51
89.99999999999892
0
ARC
5
104
100
AcDbEntity
8
0
100
AcDbCircle
10
256.30000000028065
20
-584.79999999999268
30
0
40
3.0000000000000426
210
0
220
0
230
1
100
AcDbArc
50
-89.999999999998934
51
0
0
LINE
5
105
100
AcDbEntity
8
0
100
AcDbLine
10
259.30000000028065
20
-584.79999999999268
30
0
11
259.30000000028065
21
166.49999999999829
31
0
0
ARC
5
106
100
AcDbEntity
8
0
100
AcDbCircle
10
-301.5000000049339
20
-584.80000000000177
30
0
40
2.9999999999999716
210
0
220
0
230
1
100
AcDbArc
50
180
51
270.00000000000108
0
ARC
5
107
100
AcDbEntity
8
0
100
AcDbCircle
10
-301.50000000492514
20
166.49999999999841
30
0
40
3.0000000000000426
210
0
220
-0
230
1
100
AcDbArc
50
90
51
180
0
LINE
5
108
100
AcDbEntity
8
0
100
AcDbLine
10
-304.50000000492514
20
166.49999999999849
30
0
11
-304.50000000493384
21
-584.80000000000177
31
0
0
CIRCLE
5
109
100
AcDbEntity
8
0
100
AcDbCircle
10
218.80000000027107
20
119.50000000000003
30
0
40
15
210
0
220
-0
230
1
0
LWPOLYLINE
5
110
100
AcDbEntity
8
0
100
AcDbPolyline
90
4
70
1
43
0.0
10
-263.19999999972703
20
152.65000000000683
10
-259.69999999972703
20
152.65000000000674
42
-0.99999999999999989
10
-259.69999999972703
20
147.34999999999724
10
-263.19999999972697
20
147.34999999999715
42
-0.99999999999999989
0
LWPOLYLINE
5
111
100
AcDbEntity
8
0
100
AcDbPolyline
90
4
70
1
43
0.0
10
-283.1215274749224
20
67.853276132366673
10
-286.57821809358666
20
67.30437726477976
42
-0.99999999999999989
10
-287.40940780736264
20
72.538794487338009
10
-283.95271718869833
20
73.087693354924923
42
-0.99999999999999989
0
CIRCLE
5
112
100
AcDbEntity
8
0
100
AcDbCircle
10
237.80000000027104
20
69.999999999999886
30
0
40
2.6500000000000057
210
0
220
-0
230
1
0
LWPOLYLINE
5
113
100
AcDbEntity
8
0
100
AcDbPolyline
90
4
70
1
43
0.0
10
-19.699999999727034
20
147.34999999999715
10
-23.199999999727012
20
147.34999999999715
42
-0.99999999999999989
10
-23.199999999727012
20
152.65000000000683
10
-19.699999999727034
20
152.65000000000683
42
-0.99999999999999989
0
CIRCLE
5
114
100
AcDbEntity
8
0
100
AcDbCircle
10
217.300000000273
20
150.00000000000199
30
0
40
2.6500000000000057
210
0
220
-0
230
1
0
LWPOLYLINE
5
115
100
AcDbEntity
8
0
100
AcDbPolyline
90
4
70
1
43
0.0
10
240.45000000791586
20
-526.99999999999932
42
0.99999999999999989
10
235.14999999262454
20
-527.00000000000057
10
235.14999999262554
20
-530.5000000000008
42
0.99999999999999989
10
240.45000000791686
20
-530.49999999999932
0
LWPOLYLINE
5
116
100
AcDbEntity
8
0
100
AcDbPolyline
90
4
70
1
43
0.0
10
240.45000001404429
20
-127.00000000001103
42
0.99999999999999989
10
235.1499999865224
20
-126.99999999998917
10
235.14999998650791
20
-130.49999999998909
42
0.99999999999999989
10
240.45000001402985
20
-130.50000000001103
0
LWPOLYLINE
5
117
100
AcDbEntity
8
0
100
AcDbPolyline
90
4
70
1
43
0.0
10
235.14999999264131
20
-330.4999999999394
10
235.14999999259953
20
-326.99999999994247
42
-0.99999999999999989
10
240.45000000794016
20
-327.00000000005787
10
240.45000000790114
20
-330.50000000006082
42
-0.99999999999999989
0
LWPOLYLINE
5
118
100
AcDbEntity
8
0
100
AcDbPolyline
90
4
70
1
43
0.0
10
-288.46727694639696
20
-127.48955752568305
42
0.99999998709521598
10
-285.40679853787213
20
-132.99623273920628
10
-282.34753448991819
20
-131.29596689297244
42
0.99999999999999989
10
-285.40801295620417
20
-125.78929171116928
0
LWPOLYLINE
5
119
100
AcDbEntity
8
0
100
AcDbPolyline
90
4
70
1
43
0.0
10
-289.03486650054379
20
-328.06429552124268
10
-286.50086224899241
20
-325.65000008507099
42
-0.99999999999999989
10
-282.15513046314805
20
-330.21120773863487
10
-284.68913471469943
20
-332.62550317480657
42
-0.99999999999999989
0
LWPOLYLINE
5
120
100
AcDbEntity
8
0
100
AcDbPolyline
90
4
70
1
43
0.0
10
-254.71231736761189
20
-558.26632595733702
42
0.99999999999999989
10
-259.94183256618237
20
-554.75318337724798
10
-261.89357844391003
20
-557.65846959873681
42
0.9999999925494194
10
-256.66406327151714
20
-561.17161221778701
0
LWPOLYLINE
5
121
100
AcDbEntity
8
0
100
AcDbPolyline
90
4
70
1
43
0.0
10
-25.039972219197644
20
-557.19981113877486
42
0.99999999999999989
10
-30.99110557289567
20
-555.13244281007678
10
-32.139643533283426
20
-558.43862800657575
42
0.9999999925494194
10
-26.188510179585442
20
-560.50599633527372
0
ENDSEC
0
SECTION
2
OBJECTS
0
DICTIONARY
5
C
100
AcDbDictionary
3
ACAD_GROUP
350
D
3
ACAD_MLINESTYLE
350
17
0
DICTIONARY
5
D
100
AcDbDictionary
0
DICTIONARY
5
1A
330
C
100
AcDbDictionary
0
DICTIONARY
5
17
100
AcDbDictionary
0
ENDSEC
0
EOF
