0
SECTION
2
HEADER
9
$INSUNITS
70
4
9
$ACADVER
1
AC1014
9
$HANDSEED
5
FFFF
0
ENDSEC
0
SECTION
2
TABLES
0
TABLE
2
VPORT
5
8
100
AcDbSymbolTable
0
ENDTAB
0
TABLE
2
LTYPE
5
5
100
AcDbSymbolTable
0
LTYPE
5
14
100
AcDbSymbolTableRecord
100
AcDbLinetypeTableRecord
2
BYBLOCK
70
0
0
LTYPE
5
15
100
AcDbSymbolTableRecord
100
AcDbLinetypeTableRecord
2
BYLAYER
70
0
0
ENDTAB
0
TABLE
2
LAYER
5
2
100
AcDbSymbolTable
70
2
0
LAYER
5
50
100
AcDbSymbolTableRecord
100
AcDbLayerTableRecord
2
0
70
0
6
CONTINUOUS
0
ENDTAB
0
TABLE
2
STYLE
5
3
100
AcDbSymbolTable
70
1
0
STYLE
5
11
100
AcDbSymbolTableRecord
100
AcDbTextStyleTableRecord
2
STANDARD
70
0
0
ENDTAB
0
TABLE
2
VIEW
5
6
100
AcDbSymbolTable
70
0
0
ENDTAB
0
TABLE
2
UCS
5
7
100
AcDbSymbolTable
70
0
0
ENDTAB
0
TABLE
2
APPID
5
9
100
AcDbSymbolTable
70
2
0
APPID
5
12
100
AcDbSymbolTableRecord
100
AcDbRegAppTableRecord
2
ACAD
70
0
0
ENDTAB
0
TABLE
2
DIMSTYLE
5
A
100
AcDbSymbolTable
70
1
0
ENDTAB
0
TABLE
2
BLOCK_RECORD
5
1
100
AcDbSymbolTable
70
1
0
BLOCK_RECORD
5
1F
100
AcDbSymbolTableRecord
100
AcDbBlockTableRecord
2
*MODEL_SPACE
0
BLOCK_RECORD
5
1B
100
AcDbSymbolTableRecord
100
AcDbBlockTableRecord
2
*PAPER_SPACE
0
ENDTAB
0
ENDSEC
0
SECTION
2
BLOCKS
0
BLOCK
5
20
100
AcDbEntity
100
AcDbBlockBegin
2
*MODEL_SPACE
0
ENDBLK
5
21
100
AcDbEntity
100
AcDbBlockEnd
0
BLOCK
5
1C
100
AcDbEntity
100
AcDbBlockBegin
2
*PAPER_SPACE
0
ENDBLK
5
1D
100
AcDbEntity
100
AcDbBlockEnd
0
ENDSEC
0
SECTION
2
ENTITIES
0
ARC
5
100
100
AcDbEntity
8
0
100
AcDbCircle
10
-235.50000000000068
20
158
30
0
40
4.9999999999999645
210
0
220
-0
230
1
100
AcDbArc
50
89.999999999999673
51
180
0
LINE
5
101
100
AcDbEntity
8
0
100
AcDbLine
10
-240.50000000000065
20
157.99999999999997
30
0
11
-240.50000000000065
21
-535
31
0
0
ARC
5
102
100
AcDbEntity
8
0
100
AcDbCircle
10
-235.50000000000068
20
-535.00000000000011
30
0
40
4.9999999999999645
210
0
220
0
230
1
100
AcDbArc
50
180
51
270.00000000000034
0
LINE
5
103
100
AcDbEntity
8
0
100
AcDbLine
10
-235.50000000000065
20
-540
30
0
11
237.4999999999994
21
-540
31
0
0
ARC
5
104
100
AcDbEntity
8
0
100
AcDbCircle
10
237.49999999999943
20
-535.00000000000011
30
0
40
4.9999999999999289
210
0
220
0
230
1
100
AcDbArc
50
-90.000000000000313
51
0
0
LINE
5
105
100
AcDbEntity
8
0
100
AcDbLine
10
242.49999999999937
20
-535
30
0
11
242.4999999999994
21
158.00000000000011
31
0
0
ARC
5
106
100
AcDbEntity
8
0
100
AcDbCircle
10
237.49999999999937
20
158
30
0
40
5.0000000000000355
210
0
220
-0
230
1
100
AcDbArc
50
0
51
89.999999999999673
0
LINE
5
107
100
AcDbEntity
8
0
100
AcDbLine
10
237.4999999999994
20
163.00000000000006
30
0
11
-235.50000000000065
21
162.99999999999997
31
0
0
CIRCLE
5
108
100
AcDbEntity
8
0
100
AcDbCircle
10
224.49999999999955
20
-522.50000000000045
30
0
40
5.5000000000000071
210
0
220
0
230
1
0
LINE
5
109
100
AcDbEntity
8
0
100
AcDbLine
10
223.99208906926532
20
-15.500000000000004
30
0
11
201.99999999999926
21
-15.499999999999972
31
0
0
ARC
5
110
100
AcDbEntity
8
0
100
AcDbCircle
10
201.99999999999926
20
-10
30
0
40
5.5000000000000071
210
0
220
0
230
1
100
AcDbArc
50
90.000014742943918
51
270
0
LINE
5
111
100
AcDbEntity
8
0
100
AcDbLine
10
201.99999858477861
20
-4.5000028304429165
30
0
11
223.99999858477784
21
-4.5000000000001705
31
0
0
ARC
5
112
100
AcDbEntity
8
0
100
AcDbCircle
10
223.99999999999926
20
-10
30
0
40
5.5000000000000071
210
0
220
0
230
1
100
AcDbArc
50
-90.082411472611739
51
90.000014742948082
0
CIRCLE
5
113
100
AcDbEntity
8
0
100
AcDbCircle
10
-215.0000000000008
20
-365
30
0
40
2.6249999999999929
210
0
220
0
230
1
0
CIRCLE
5
114
100
AcDbEntity
8
0
100
AcDbCircle
10
-215.0000000000008
20
-265
30
0
40
2.6249999999999929
210
0
220
0
230
1
0
CIRCLE
5
115
100
AcDbEntity
8
0
100
AcDbCircle
10
-215.0000000000008
20
-165
30
0
40
2.6249999999999929
210
0
220
0
230
1
0
CIRCLE
5
116
100
AcDbEntity
8
0
100
AcDbCircle
10
-215.0000000000008
20
-65
30
0
40
2.6249999999999929
210
0
220
0
230
1
0
LWPOLYLINE
5
117
100
AcDbEntity
8
0
100
AcDbPolyline
90
8
70
1
43
0.0
10
-223.50000000000063
20
-454
10
-223.50000000000063
20
-476
42
0.41421356237309509
10
-220.00000000000068
20
-479.49999999999994
10
-178.00000000000065
20
-479.5
42
0.41421356237309803
10
-174.50000000000071
20
-476
10
-174.50000000000071
20
-454
42
0.41421356237309509
10
-178.00000000000065
20
-450.50000000000006
10
-220.00000000000068
20
-450.5
42
0.41421356237309803
0
CIRCLE
5
118
100
AcDbEntity
8
0
100
AcDbCircle
10
-215.0000000000008
20
69.999999999999972
30
0
40
2.6249999999999929
210
0
220
0
230
1
0
CIRCLE
5
119
100
AcDbEntity
8
0
100
AcDbCircle
10
179.99999999999957
20
139.99999999999997
30
0
40
2.6249999999999929
210
0
220
0
230
1
0
CIRCLE
5
120
100
AcDbEntity
8
0
100
AcDbCircle
10
-180.00000000000043
20
139.99999999999997
30
0
40
2.6249999999999929
210
0
220
0
230
1
0
CIRCLE
5
121
100
AcDbEntity
8
0
100
AcDbCircle
10
-4.2632564145606011e-13
20
139.99999999999997
30
0
40
2.625
210
0
220
0
230
1
0
CIRCLE
5
122
100
AcDbEntity
8
0
100
AcDbCircle
10
214.99999999999937
20
-465
30
0
40
2.6249999999999929
210
0
220
0
230
1
0
CIRCLE
5
123
100
AcDbEntity
8
0
100
AcDbCircle
10
214.99999999999937
20
-365
30
0
40
2.6249999999999929
210
0
220
0
230
1
0
CIRCLE
5
124
100
AcDbEntity
8
0
100
AcDbCircle
10
214.99999999999937
20
-265
30
0
40
2.6249999999999929
210
0
220
0
230
1
0
CIRCLE
5
125
100
AcDbEntity
8
0
100
AcDbCircle
10
214.99999999999937
20
-165
30
0
40
2.6249999999999929
210
0
220
0
230
1
0
CIRCLE
5
126
100
AcDbEntity
8
0
100
AcDbCircle
10
214.99999999999937
20
-65
30
0
40
2.6249999999999929
210
0
220
0
230
1
0
CIRCLE
5
127
100
AcDbEntity
8
0
100
AcDbCircle
10
214.99999999999937
20
69.999999999999972
30
0
40
2.6249999999999929
210
0
220
0
230
1
0
CIRCLE
5
128
100
AcDbEntity
8
0
100
AcDbCircle
10
-90
20
-522.50000000000034
30
0
40
2.6249999999999929
210
0
220
0
230
1
0
CIRCLE
5
129
100
AcDbEntity
8
0
100
AcDbCircle
10
90
20
-522.50000000000034
30
0
40
2.6249999999999929
210
0
220
0
230
1
0
CIRCLE
5
130
100
AcDbEntity
8
0
100
AcDbCircle
10
180
20
-522.50000000000034
30
0
40
2.6249999999999929
210
0
220
0
230
1
0
CIRCLE
5
131
100
AcDbEntity
8
0
100
AcDbCircle
10
0
20
-522.50000000000034
30
0
40
2.625
210
0
220
0
230
1
0
CIRCLE
5
132
100
AcDbEntity
8
0
100
AcDbCircle
10
-210.0000000000008
20
143.99999999999994
30
0
40
5.5000000000000071
210
0
220
0
230
1
0
CIRCLE
5
133
100
AcDbEntity
8
0
100
AcDbCircle
10
-224.50000000000045
20
134.99999999999997
30
0
40
5.5000000000000071
210
0
220
0
230
1
0
CIRCLE
5
134
100
AcDbEntity
8
0
100
AcDbCircle
10
224.49999999999955
20
134.99999999999997
30
0
40
5.5000000000000071
210
0
220
0
230
1
0
CIRCLE
5
135
100
AcDbEntity
8
0
100
AcDbCircle
10
209.99999999999932
20
143.99999999999994
30
0
40
5.5000000000000071
210
0
220
0
230
1
0
CIRCLE
5
136
100
AcDbEntity
8
0
100
AcDbCircle
10
89.999999999999574
20
139.99999999999997
30
0
40
2.6249999999999929
210
0
220
0
230
1
0
CIRCLE
5
137
100
AcDbEntity
8
0
100
AcDbCircle
10
-90.000000000000426
20
139.99999999999997
30
0
40
2.6249999999999929
210
0
220
0
230
1
0
LWPOLYLINE
5
138
100
AcDbEntity
8
0
100
AcDbPolyline
90
4
70
1
43
0.0
10
-213.00000000000071
20
-4.4999999999999929
42
-0.99999999999999989
10
-213.0000000000008
20
-15.500000000000007
10
-224.00000000000068
20
-15.499999999999989
42
-0.99999999999999989
10
-224.00000000000077
20
-4.4999999999999929
0
CIRCLE
5
139
100
AcDbEntity
8
0
100
AcDbCircle
10
-224.50000000000045
20
-522.50000000000045
30
0
40
5.5000000000000071
210
0
220
0
230
1
0
CIRCLE
5
140
100
AcDbEntity
8
0
100
AcDbCircle
10
-170
20
-522.50000000000034
30
0
40
5.5000000000000071
210
0
220
0
230
1
0
CIRCLE
5
141
100
AcDbEntity
8
0
100
AcDbCircle
10
209.99999999999926
20
-527.50000000000045
30
0
40
5.5000000000000071
210
0
220
0
230
1
0
ENDSEC
0
SECTION
2
OBJECTS
0
DICTIONARY
5
C
100
AcDbDictionary
3
ACAD_GROUP
350
D
3
ACAD_MLINESTYLE
350
17
0
DICTIONARY
5
D
100
AcDbDictionary
0
DICTIONARY
5
1A
330
C
100
AcDbDictionary
0
DICTIONARY
5
17
100
AcDbDictionary
0
ENDSEC
0
EOF
