0
SECTION
2
HEADER
9
$INSUNITS
70
4
9
$ACADVER
1
AC1014
9
$HANDSEED
5
FFFF
0
ENDSEC
0
SECTION
2
TABLES
0
TABLE
2
VPORT
5
8
100
AcDbSymbolTable
0
ENDTAB
0
TABLE
2
LTYPE
5
5
100
AcDbSymbolTable
0
LTYPE
5
14
100
AcDbSymbolTableRecord
100
AcDbLinetypeTableRecord
2
BYBLOCK
70
0
0
LTYPE
5
15
100
AcDbSymbolTableRecord
100
AcDbLinetypeTableRecord
2
BYLAYER
70
0
0
ENDTAB
0
TABLE
2
LAYER
5
2
100
AcDbSymbolTable
70
2
0
LAYER
5
50
100
AcDbSymbolTableRecord
100
AcDbLayerTableRecord
2
0
70
0
6
CONTINUOUS
0
ENDTAB
0
TABLE
2
STYLE
5
3
100
AcDbSymbolTable
70
1
0
STYLE
5
11
100
AcDbSymbolTableRecord
100
AcDbTextStyleTableRecord
2
STANDARD
70
0
0
ENDTAB
0
TABLE
2
VIEW
5
6
100
AcDbSymbolTable
70
0
0
ENDTAB
0
TABLE
2
UCS
5
7
100
AcDbSymbolTable
70
0
0
ENDTAB
0
TABLE
2
APPID
5
9
100
AcDbSymbolTable
70
2
0
APPID
5
12
100
AcDbSymbolTableRecord
100
AcDbRegAppTableRecord
2
ACAD
70
0
0
ENDTAB
0
TABLE
2
DIMSTYLE
5
A
100
AcDbSymbolTable
70
1
0
ENDTAB
0
TABLE
2
BLOCK_RECORD
5
1
100
AcDbSymbolTable
70
1
0
BLOCK_RECORD
5
1F
100
AcDbSymbolTableRecord
100
AcDbBlockTableRecord
2
*MODEL_SPACE
0
BLOCK_RECORD
5
1B
100
AcDbSymbolTableRecord
100
AcDbBlockTableRecord
2
*PAPER_SPACE
0
ENDTAB
0
ENDSEC
0
SECTION
2
BLOCKS
0
BLOCK
5
20
100
AcDbEntity
100
AcDbBlockBegin
2
*MODEL_SPACE
0
ENDBLK
5
21
100
AcDbEntity
100
AcDbBlockEnd
0
BLOCK
5
1C
100
AcDbEntity
100
AcDbBlockBegin
2
*PAPER_SPACE
0
ENDBLK
5
1D
100
AcDbEntity
100
AcDbBlockEnd
0
ENDSEC
0
SECTION
2
ENTITIES
0
LWPOLYLINE
5
100
100
AcDbEntity
8
0
100
AcDbPolyline
90
8
70
1
43
0.0
10
-284.50000000000045
20
157
42
-0.41421356237309404
10
-279.50000000000045
20
162
10
279.4999999999996
20
161.99999999999994
42
-0.41421356237309404
10
284.4999999999996
20
157.00000000000003
10
284.4999999999996
20
-535
42
-0.41421356237310336
10
279.4999999999996
20
-540
10
-279.50000000000045
20
-540
42
-0.41421356237310336
10
-284.50000000000045
20
-535
0
CIRCLE
5
101
100
AcDbEntity
8
0
100
AcDbCircle
10
266.9999999999992
20
135.00000000000006
30
0
40
5.5000000000000071
210
1.9721522630525295e-31
220
-0
230
1
0
CIRCLE
5
102
100
AcDbEntity
8
0
100
AcDbCircle
10
211.49999999999946
20
65.000000000000071
30
0
40
2.6249999999999929
210
1.9721522630525295e-31
220
-0
230
1
0
CIRCLE
5
103
100
AcDbEntity
8
0
100
AcDbCircle
10
89.999999999999986
20
138.00000000000009
30
0
40
2.6249999999999929
210
1.9721522630525295e-31
220
-2.7084990665436832e-90
230
1
0
CIRCLE
5
104
100
AcDbEntity
8
0
100
AcDbCircle
10
-90.000000000000014
20
138.00000000000009
30
0
40
2.6249999999999929
210
1.9721522630525295e-31
220
-2.7084990665436832e-90
230
1
0
CIRCLE
5
105
100
AcDbEntity
8
0
100
AcDbCircle
10
-211.50000000000031
20
65.000000000000071
30
0
40
2.6249999999999929
210
1.9721522630525295e-31
220
-0
230
1
0
CIRCLE
5
106
100
AcDbEntity
8
0
100
AcDbCircle
10
-5.1319208945283383e-15
20
138.00000000000009
30
0
40
2.625
210
-1.9721522630525295e-31
220
2.821353194316328e-92
230
1
0
CIRCLE
5
107
100
AcDbEntity
8
0
100
AcDbCircle
10
-209.50000000000031
20
146.50000000000003
30
0
40
5.5000000000000071
210
1.9721522630525295e-31
220
-0
230
1
0
CIRCLE
5
108
100
AcDbEntity
8
0
100
AcDbCircle
10
112.49999999999943
20
-10.000000000000032
30
0
40
2.6249999999999929
210
1.9721522630525295e-31
220
-0
230
1
0
CIRCLE
5
109
100
AcDbEntity
8
0
100
AcDbCircle
10
-267.0000000000008
20
135.00000000000006
30
0
40
5.4999999999999716
210
1.9721522630525295e-31
220
-0
230
1
0
CIRCLE
5
110
100
AcDbEntity
8
0
100
AcDbCircle
10
-112.50000000000057
20
-10.000000000000032
30
0
40
2.6249999999999929
210
1.9721522630525295e-31
220
-0
230
1
0
LWPOLYLINE
5
111
100
AcDbEntity
8
0
100
AcDbPolyline
90
4
70
1
43
0.0
10
-5.5000000000004068
20
-15.500000000000023
42
-0.99999999999999989
10
-5.5000000000004068
20
-4.5000000000000213
10
5.5000000000186953
20
-4.5000000000000213
42
-1.0000063465067364
10
5.4999301886279151
20
-15.499999999556966
0
CIRCLE
5
112
100
AcDbEntity
8
0
100
AcDbCircle
10
-37.500000000000554
20
-10.000000000000032
30
0
40
2.6250000000000018
210
0
220
-0
230
1
0
CIRCLE
5
113
100
AcDbEntity
8
0
100
AcDbCircle
10
209.49999999999946
20
146.50000000000003
30
0
40
5.5000000000000071
210
1.9721522630525295e-31
220
-0
230
1
0
CIRCLE
5
114
100
AcDbEntity
8
0
100
AcDbCircle
10
-187.50000000000057
20
-10.000000000000032
30
0
40
2.6249999999999929
210
1.9721522630525295e-31
220
-0
230
1
0
CIRCLE
5
115
100
AcDbEntity
8
0
100
AcDbCircle
10
187.49999999999943
20
-10.000000000000032
30
0
40
2.6249999999999929
210
1.9721522630525295e-31
220
-0
230
1
0
CIRCLE
5
116
100
AcDbEntity
8
0
100
AcDbCircle
10
37.499999999999446
20
-10.000000000000032
30
0
40
2.6250000000000062
210
0
220
-0
230
1
0
CIRCLE
5
117
100
AcDbEntity
8
0
100
AcDbCircle
10
179.99999999999997
20
138.00000000000009
30
0
40
2.6249999999999929
210
1.9721522630525295e-31
220
-2.7084990665436832e-90
230
1
0
CIRCLE
5
118
100
AcDbEntity
8
0
100
AcDbCircle
10
-180.00000000000003
20
138.00000000000009
30
0
40
2.6249999999999929
210
1.9721522630525295e-31
220
-2.7084990665436832e-90
230
1
0
CIRCLE
5
119
100
AcDbEntity
8
0
100
AcDbCircle
10
249.49999999999966
20
-71.0001102283005
30
0
40
2.6249999999999929
210
1.9721522630525295e-31
220
-0
230
1
0
CIRCLE
5
120
100
AcDbEntity
8
0
100
AcDbCircle
10
266.9999999999992
20
-516
30
0
40
5.5000000000000071
210
1.9721522630525295e-31
220
-0
230
1
0
CIRCLE
5
121
100
AcDbEntity
8
0
100
AcDbCircle
10
210.49999999999943
20
-10.000000000000021
30
0
40
2.1499999999999986
210
-1.9721522630525295e-31
220
-0
230
1
0
LWPOLYLINE
5
122
100
AcDbEntity
8
0
100
AcDbPolyline
90
8
70
1
43
0.0
10
270.49999999999955
20
11.999999999999993
42
-0.4142135623730947
10
268.49999999999955
20
10
10
236.49999999999949
20
10.000000000000037
42
-0.41421356237308427
10
234.49999999999955
20
11.999999999999993
10
234.49999999999955
20
48.000000000000007
42
-0.41421356237309509
10
236.49999999999952
20
50
10
268.4999999999996
20
49.999999999999964
42
-0.41421356237308465
10
270.49999999999955
20
48.000000000000007
0
CIRCLE
5
123
100
AcDbEntity
8
0
100
AcDbCircle
10
249.49999999999966
20
-211.00011022830051
30
0
40
2.6249999999999929
210
1.9721522630525295e-31
220
-0
230
1
0
CIRCLE
5
124
100
AcDbEntity
8
0
100
AcDbCircle
10
249.99999999999972
20
-527.50000000000011
30
0
40
5.5000000000000071
210
1.9721522630525295e-31
220
-0
230
1
0
LWPOLYLINE
5
125
100
AcDbEntity
8
0
100
AcDbPolyline
90
8
70
1
43
0.0
10
-236.50000000000017
20
49.999999999997449
42
-0.41421356237308854
10
-234.50000000000014
20
47.99999999999747
10
-234.49999999999977
20
11.99999999999747
42
-0.41421356237310253
10
-236.49999999999974
20
9.9999999999974492
10
-268.49999999999972
20
9.9999999999970974
42
-0.41421356237308826
10
-270.49999999999977
20
11.99999999999708
10
-270.50000000000017
20
47.999999999997073
42
-0.41421356237309637
10
-268.50000000000023
20
49.999999999997115
0
CIRCLE
5
126
100
AcDbEntity
8
0
100
AcDbCircle
10
240.49999999999943
20
-10.000000000000021
30
0
40
2.1499999999999986
210
-1.9721522630525295e-31
220
-0
230
1
0
CIRCLE
5
127
100
AcDbEntity
8
0
100
AcDbCircle
10
-249.50000000000051
20
-211.00011022830051
30
0
40
2.6249999999999929
210
1.9721522630525295e-31
220
-0
230
1
0
CIRCLE
5
128
100
AcDbEntity
8
0
100
AcDbCircle
10
-249.50000000000051
20
-71.0001102283005
30
0
40
2.6249999999999929
210
1.9721522630525295e-31
220
-0
230
1
0
CIRCLE
5
129
100
AcDbEntity
8
0
100
AcDbCircle
10
-250.00000000000045
20
-527.50000000000011
30
0
40
5.4999999999999716
210
1.9721522630525295e-31
220
-0
230
1
0
CIRCLE
5
130
100
AcDbEntity
8
0
100
AcDbCircle
10
249.49999999999966
20
-491.00011022830051
30
0
40
2.6249999999999929
210
1.9721522630525295e-31
220
-0
230
1
0
CIRCLE
5
131
100
AcDbEntity
8
0
100
AcDbCircle
10
-249.50000000000051
20
-351.00011022830051
30
0
40
2.6249999999999929
210
1.9721522630525295e-31
220
-0
230
1
0
CIRCLE
5
132
100
AcDbEntity
8
0
100
AcDbCircle
10
249.49999999999966
20
-351.00011022830051
30
0
40
2.6249999999999929
210
1.9721522630525295e-31
220
-0
230
1
0
CIRCLE
5
133
100
AcDbEntity
8
0
100
AcDbCircle
10
-267.0000000000004
20
-516
30
0
40
5.5000000000000071
210
1.9721522630525295e-31
220
-0
230
1
0
LWPOLYLINE
5
134
100
AcDbEntity
8
0
100
AcDbPolyline
90
4
70
1
43
0.0
10
256.99999999999955
20
-28.488822751905705
42
-0.99999999999999989
10
266.99999999999955
20
-28.488822751905705
10
266.99999999999955
20
-38.488822751905701
42
-0.99999999999999989
10
256.99999999999955
20
-38.488822751905701
0
CIRCLE
5
135
100
AcDbEntity
8
0
100
AcDbCircle
10
-210.49999999999937
20
-10.000000000002292
30
0
40
2.1499999999999986
210
-1.9721522630525295e-31
220
-0
230
1
0
CIRCLE
5
136
100
AcDbEntity
8
0
100
AcDbCircle
10
-240.49999999999937
20
-10.000000000002615
30
0
40
2.1499999999999986
210
-1.9721522630525295e-31
220
-0
230
1
0
LWPOLYLINE
5
137
100
AcDbEntity
8
0
100
AcDbPolyline
90
4
70
1
43
0.0
10
-266.99999999999937
20
-28.488822751908582
42
-0.99999999999999989
10
-256.99999999999932
20
-28.488822751908476
10
-256.99999999999909
20
-38.488822751908472
42
-0.99999999999999989
10
-266.9999999999992
20
-38.488822751908586
0
CIRCLE
5
138
100
AcDbEntity
8
0
100
AcDbCircle
10
-9.5000000000004068
20
-522.50000000000011
30
0
40
5.5000000000000107
210
-1.9721522630525295e-31
220
-0
230
1
0
CIRCLE
5
139
100
AcDbEntity
8
0
100
AcDbCircle
10
9.4999999999995914
20
-522.50000000000011
30
0
40
5.5000000000000151
210
0
220
-0
230
1
0
CIRCLE
5
140
100
AcDbEntity
8
0
100
AcDbCircle
10
-6.1795378862189559e-13
20
-280.00000000000006
30
0
40
4.5
210
0
220
-0
230
1
0
CIRCLE
5
141
100
AcDbEntity
8
0
100
AcDbCircle
10
-6.1795378862189559e-13
20
-105.00000000000007
30
0
40
4.5
210
0
220
-0
230
1
0
CIRCLE
5
142
100
AcDbEntity
8
0
100
AcDbCircle
10
-6.1795378862189559e-13
20
-255.00000000000006
30
0
40
4.5
210
0
220
-0
230
1
0
CIRCLE
5
143
100
AcDbEntity
8
0
100
AcDbCircle
10
-6.1795378862189559e-13
20
-305.00000000000006
30
0
40
4.5
210
0
220
-0
230
1
0
CIRCLE
5
144
100
AcDbEntity
8
0
100
AcDbCircle
10
-6.1795378862189559e-13
20
-55.000000000000071
30
0
40
4.5
210
0
220
-0
230
1
0
CIRCLE
5
145
100
AcDbEntity
8
0
100
AcDbCircle
10
-6.1795378862189559e-13
20
-405.00000000000006
30
0
40
4.5
210
0
220
-0
230
1
0
CIRCLE
5
146
100
AcDbEntity
8
0
100
AcDbCircle
10
-6.1795378862189559e-13
20
-155.00000000000006
30
0
40
4.5
210
0
220
-0
230
1
0
CIRCLE
5
147
100
AcDbEntity
8
0
100
AcDbCircle
10
-6.1795378862189559e-13
20
-355.00000000000006
30
0
40
4.5
210
0
220
-0
230
1
0
CIRCLE
5
148
100
AcDbEntity
8
0
100
AcDbCircle
10
-6.1795378862189559e-13
20
-430.00000000000006
30
0
40
4.5
210
0
220
-0
230
1
0
CIRCLE
5
149
100
AcDbEntity
8
0
100
AcDbCircle
10
-6.1795378862189559e-13
20
-130.00000000000006
30
0
40
4.5
210
0
220
-0
230
1
0
CIRCLE
5
150
100
AcDbEntity
8
0
100
AcDbCircle
10
-6.1795378862189559e-13
20
-180.00000000000006
30
0
40
4.5
210
0
220
-0
230
1
0
CIRCLE
5
151
100
AcDbEntity
8
0
100
AcDbCircle
10
-6.1795378862189559e-13
20
-80.000000000000071
30
0
40
4.5
210
0
220
-0
230
1
0
CIRCLE
5
152
100
AcDbEntity
8
0
100
AcDbCircle
10
-6.1795378862189559e-13
20
-330.00000000000006
30
0
40
4.5
210
0
220
-0
230
1
0
CIRCLE
5
153
100
AcDbEntity
8
0
100
AcDbCircle
10
-6.1795378862189559e-13
20
-455.00000000000006
30
0
40
4.5
210
0
220
-0
230
1
0
CIRCLE
5
154
100
AcDbEntity
8
0
100
AcDbCircle
10
-6.1795378862189559e-13
20
-205.00000000000006
30
0
40
4.5
210
0
220
-0
230
1
0
CIRCLE
5
155
100
AcDbEntity
8
0
100
AcDbCircle
10
-6.1795378862189559e-13
20
-480.00000000000006
30
0
40
4.5
210
0
220
-0
230
1
0
CIRCLE
5
156
100
AcDbEntity
8
0
100
AcDbCircle
10
-6.1795378862189559e-13
20
-230.00000000000006
30
0
40
4.5
210
0
220
-0
230
1
0
CIRCLE
5
157
100
AcDbEntity
8
0
100
AcDbCircle
10
-6.1795378862189559e-13
20
-380.00000000000006
30
0
40
4.5
210
0
220
-0
230
1
0
CIRCLE
5
158
100
AcDbEntity
8
0
100
AcDbCircle
10
-249.50000000000051
20
-491.00011022830051
30
0
40
2.6249999999999929
210
1.9721522630525295e-31
220
-0
230
1
0
ENDSEC
0
SECTION
2
OBJECTS
0
DICTIONARY
5
C
100
AcDbDictionary
3
ACAD_GROUP
350
D
3
ACAD_MLINESTYLE
350
17
0
DICTIONARY
5
D
100
AcDbDictionary
0
DICTIONARY
5
1A
330
C
100
AcDbDictionary
0
DICTIONARY
5
17
100
AcDbDictionary
0
ENDSEC
0
EOF
