0
SECTION
2
HEADER
9
$INSUNITS
70
4
9
$ACADVER
1
AC1014
9
$HANDSEED
5
FFFF
0
ENDSEC
0
SECTION
2
TABLES
0
TABLE
2
VPORT
5
8
100
AcDbSymbolTable
0
ENDTAB
0
TABLE
2
LTYPE
5
5
100
AcDbSymbolTable
0
LTYPE
5
14
100
AcDbSymbolTableRecord
100
AcDbLinetypeTableRecord
2
BYBLOCK
70
0
0
LTYPE
5
15
100
AcDbSymbolTableRecord
100
AcDbLinetypeTableRecord
2
BYLAYER
70
0
0
ENDTAB
0
TABLE
2
LAYER
5
2
100
AcDbSymbolTable
70
2
0
LAYER
5
50
100
AcDbSymbolTableRecord
100
AcDbLayerTableRecord
2
0
70
0
6
CONTINUOUS
0
ENDTAB
0
TABLE
2
STYLE
5
3
100
AcDbSymbolTable
70
1
0
STYLE
5
11
100
AcDbSymbolTableRecord
100
AcDbTextStyleTableRecord
2
STANDARD
70
0
0
ENDTAB
0
TABLE
2
VIEW
5
6
100
AcDbSymbolTable
70
0
0
ENDTAB
0
TABLE
2
UCS
5
7
100
AcDbSymbolTable
70
0
0
ENDTAB
0
TABLE
2
APPID
5
9
100
AcDbSymbolTable
70
2
0
APPID
5
12
100
AcDbSymbolTableRecord
100
AcDbRegAppTableRecord
2
ACAD
70
0
0
ENDTAB
0
TABLE
2
DIMSTYLE
5
A
100
AcDbSymbolTable
70
1
0
ENDTAB
0
TABLE
2
BLOCK_RECORD
5
1
100
AcDbSymbolTable
70
1
0
BLOCK_RECORD
5
1F
100
AcDbSymbolTableRecord
100
AcDbBlockTableRecord
2
*MODEL_SPACE
0
BLOCK_RECORD
5
1B
100
AcDbSymbolTableRecord
100
AcDbBlockTableRecord
2
*PAPER_SPACE
0
ENDTAB
0
ENDSEC
0
SECTION
2
BLOCKS
0
BLOCK
5
20
100
AcDbEntity
100
AcDbBlockBegin
2
*MODEL_SPACE
0
ENDBLK
5
21
100
AcDbEntity
100
AcDbBlockEnd
0
BLOCK
5
1C
100
AcDbEntity
100
AcDbBlockBegin
2
*PAPER_SPACE
0
ENDBLK
5
1D
100
AcDbEntity
100
AcDbBlockEnd
0
ENDSEC
0
SECTION
2
ENTITIES
0
LWPOLYLINE
5
100
100
AcDbEntity
8
0
100
AcDbPolyline
90
38
70
1
43
0.0
10
-327.3499999443319
20
15.901923788646968
42
0.26794919243114074
10
-328.84999994433178
20
13.303847577293679
10
-328.8499999443319
20
-41.499999999999666
42
0.41421356237311407
10
-325.84999994433184
20
-44.499999999999687
10
325.84999994436322
20
-44.499999999999673
42
0.41421356237310197
10
328.84999994436316
20
-41.499999999999673
10
328.84999994436328
20
13.303847577293677
42
0.26794919243111559
10
327.34999994436322
20
15.901923788647032
42
-0.26794919243112381
10
325.84999994436322
20
18.50000000000033
10
325.84999994436316
20
166.50000000000011
42
0.41421356237309853
10
322.84999994436316
20
169.50000000000014
10
308.8499999443768
20
169.50000000000014
42
0.4142135623730881
10
305.84999994437675
20
166.50000000000017
10
305.84999994437669
20
162.1999999999949
42
-0.41421356237309165
10
302.84999994437669
20
159.19999999999493
10
252.84999994437669
20
159.19999999999493
42
-0.41421356237309509
10
249.84999994437669
20
162.19999999999493
10
249.84999994437669
20
166.50000000000011
42
0.41421356237309509
10
246.84999994437672
20
169.50000000000011
10
31.000000000021295
20
169.50000000000014
42
0.41421356237309892
10
28.000000000021284
20
166.50000000000017
10
28.000000000021231
20
162.19999999999717
42
-0.41421356237309548
10
25.000000000021181
20
159.1999999999972
10
-24.999999999978833
20
159.19999999999786
42
-0.4142135623730907
10
-27.99999999997879
20
162.19999999999786
10
-27.99999999997879
20
166.50000000000011
42
0.41421356237309243
10
-30.999999999978769
20
169.50000000000014
10
-246.84999994435242
20
169.50000000000014
42
0.4142135623730881
10
-249.84999994435245
20
166.50000000000017
10
-249.84999994435245
20
162.19999999999965
42
-0.41421356237309509
10
-252.8499999443525
20
159.19999999999965
10
-302.84999994435248
20
159.20000000000005
42
-0.41421356237309165
10
-305.84999994435248
20
162.20000000000005
10
-305.84999994435248
20
166.50000000000011
42
0.41421356237308121
10
-308.84999994435248
20
169.50000000000014
10
-322.8499999443319
20
169.50000000000014
42
0.41421356237309165
10
-325.84999994433184
20
166.50000000000011
10
-325.84999994433184
20
18.500000000000316
42
-0.26794919243113013
0
CIRCLE
5
101
100
AcDbEntity
8
0
100
AcDbCircle
10
-315.3499999443427
20
-14.499999999999662
30
0
40
1.6000000000000014
210
-6.3108872417680944e-30
220
-6.1629758220391547e-33
230
1
0
CIRCLE
5
102
100
AcDbEntity
8
0
100
AcDbCircle
10
307.84999994434105
20
-38.499999999999673
30
0
40
1.6000000000000014
210
-6.3108872417680944e-30
220
-6.1629758220391547e-33
230
1
0
CIRCLE
5
103
100
AcDbEntity
8
0
100
AcDbCircle
10
-17.999999999978847
20
153.49999999999761
30
0
40
2.1999999999999997
210
-8.7806756779410575e-64
220
3.076086835808269e-109
230
1
0
CIRCLE
5
104
100
AcDbEntity
8
0
100
AcDbCircle
10
-307.84999994434276
20
-38.499999999999673
30
0
40
1.6000000000000014
210
-6.3108872417680944e-30
220
-6.1629758220391547e-33
230
1
0
CIRCLE
5
105
100
AcDbEntity
8
0
100
AcDbCircle
10
315.34999994434099
20
-14.499999999999664
30
0
40
1.6000000000000014
210
-6.3108872417680944e-30
220
-6.1629758220391547e-33
230
1
0
CIRCLE
5
106
100
AcDbEntity
8
0
100
AcDbCircle
10
18.000000000021139
20
153.49999999999733
30
0
40
2.200000000000002
210
-8.7806756779410494e-64
220
3.0760868358082661e-109
230
1
0
LWPOLYLINE
5
107
100
AcDbEntity
8
0
100
AcDbPolyline
90
4
70
1
43
0.0
10
260.34999994437635
20
151.39999999999498
10
257.84999994437692
20
151.39999999999529
42
-0.99999999999999989
10
257.84999994437641
20
155.59999999999491
10
260.34999994437692
20
155.59999999999519
42
-0.99999999999999989
0
LWPOLYLINE
5
108
100
AcDbEntity
8
0
100
AcDbPolyline
90
4
70
1
43
0.0
10
-293.84999994435253
20
151.40000000000009
42
0.99999999999999989
10
-293.84999994435253
20
155.60000000000005
10
-296.34999994435253
20
155.60000000000008
42
0.99999999999999989
10
-296.34999994435253
20
151.40000000000006
0
LWPOLYLINE
5
109
100
AcDbEntity
8
0
100
AcDbPolyline
90
4
70
1
43
0.0
10
296.34999994437663
20
151.39999999999506
10
293.84999994437663
20
151.39999999999506
42
-0.99999999999999989
10
293.84999994437663
20
155.59999999999508
10
296.34999994437663
20
155.59999999999508
42
-0.99999999999999989
0
LWPOLYLINE
5
110
100
AcDbEntity
8
0
100
AcDbPolyline
90
4
70
1
43
0.0
10
-260.34999994435253
20
155.5999999999998
42
0.99999999999999989
10
-260.34999994435253
20
151.39999999999975
10
-257.84999994435253
20
151.39999999999975
42
0.99999999999999989
10
-257.84999994435259
20
155.59999999999977
0
ENDSEC
0
SECTION
2
OBJECTS
0
DICTIONARY
5
C
100
AcDbDictionary
3
ACAD_GROUP
350
D
3
ACAD_MLINESTYLE
350
17
0
DICTIONARY
5
D
100
AcDbDictionary
0
DICTIONARY
5
1A
330
C
100
AcDbDictionary
0
DICTIONARY
5
17
100
AcDbDictionary
0
ENDSEC
0
EOF
