0
SECTION
2
HEADER
9
$INSUNITS
70
4
9
$ACADVER
1
AC1014
9
$HANDSEED
5
FFFF
0
ENDSEC
0
SECTION
2
TABLES
0
TABLE
2
VPORT
5
8
100
AcDbSymbolTable
0
ENDTAB
0
TABLE
2
LTYPE
5
5
100
AcDbSymbolTable
0
LTYPE
5
14
100
AcDbSymbolTableRecord
100
AcDbLinetypeTableRecord
2
BYBLOCK
70
0
0
LTYPE
5
15
100
AcDbSymbolTableRecord
100
AcDbLinetypeTableRecord
2
BYLAYER
70
0
0
ENDTAB
0
TABLE
2
LAYER
5
2
100
AcDbSymbolTable
70
2
0
LAYER
5
50
100
AcDbSymbolTableRecord
100
AcDbLayerTableRecord
2
0
70
0
6
CONTINUOUS
0
ENDTAB
0
TABLE
2
STYLE
5
3
100
AcDbSymbolTable
70
1
0
STYLE
5
11
100
AcDbSymbolTableRecord
100
AcDbTextStyleTableRecord
2
STANDARD
70
0
0
ENDTAB
0
TABLE
2
VIEW
5
6
100
AcDbSymbolTable
70
0
0
ENDTAB
0
TABLE
2
UCS
5
7
100
AcDbSymbolTable
70
0
0
ENDTAB
0
TABLE
2
APPID
5
9
100
AcDbSymbolTable
70
2
0
APPID
5
12
100
AcDbSymbolTableRecord
100
AcDbRegAppTableRecord
2
ACAD
70
0
0
ENDTAB
0
TABLE
2
DIMSTYLE
5
A
100
AcDbSymbolTable
70
1
0
ENDTAB
0
TABLE
2
BLOCK_RECORD
5
1
100
AcDbSymbolTable
70
1
0
BLOCK_RECORD
5
1F
100
AcDbSymbolTableRecord
100
AcDbBlockTableRecord
2
*MODEL_SPACE
0
BLOCK_RECORD
5
1B
100
AcDbSymbolTableRecord
100
AcDbBlockTableRecord
2
*PAPER_SPACE
0
ENDTAB
0
ENDSEC
0
SECTION
2
BLOCKS
0
BLOCK
5
20
100
AcDbEntity
100
AcDbBlockBegin
2
*MODEL_SPACE
0
ENDBLK
5
21
100
AcDbEntity
100
AcDbBlockEnd
0
BLOCK
5
1C
100
AcDbEntity
100
AcDbBlockBegin
2
*PAPER_SPACE
0
ENDBLK
5
1D
100
AcDbEntity
100
AcDbBlockEnd
0
ENDSEC
0
SECTION
2
ENTITIES
0
LWPOLYLINE
5
100
100
AcDbEntity
8
0
100
AcDbPolyline
90
14
70
1
43
0.0
10
327.34999994436345
20
-105.10192378864633
42
0.26794919243114523
10
328.8499999443635
20
-102.50384757729299
10
328.84999994436356
20
-47.699999999999662
42
0.41421356237311241
10
325.8499999443635
20
-44.699999999999648
10
-325.84999994433184
20
-44.699999999999669
42
0.41421356237310625
10
-328.8499999443319
20
-47.699999999999669
10
-328.8499999443319
20
-102.50384757729307
42
0.26794919243113968
10
-327.3499999443319
20
-105.10192378864636
42
-0.26794919243113025
10
-325.84999994433184
20
-107.69999999999969
10
-325.8499999443319
20
-584.80000000000155
42
0.41421356237310891
10
-322.8499999443319
20
-587.80000000000166
10
322.8499999443635
20
-587.80000000000166
42
0.41421356237312973
10
325.84999994436339
20
-584.80000000000166
10
325.84999994436345
20
-107.69999999999968
42
-0.26794919243112558
0
CIRCLE
5
101
100
AcDbEntity
8
0
100
AcDbCircle
10
-307.84999994434264
20
-50.699999999999676
30
0
40
1.7500000000000071
210
-6.3108872417680944e-30
220
-6.1629758220391547e-33
230
1
0
CIRCLE
5
102
100
AcDbEntity
8
0
100
AcDbCircle
10
315.34999994434094
20
-499
30
3.5527136788005009e-14
40
1.7500000000000071
210
-6.3108872417680944e-30
220
-6.1629758220391547e-33
230
1
0
CIRCLE
5
103
100
AcDbEntity
8
0
100
AcDbCircle
10
315.34999994434094
20
-74.499999999999659
30
0
40
1.7500000000000071
210
-6.3108872417680944e-30
220
-6.1629758220391547e-33
230
1
0
CIRCLE
5
104
100
AcDbEntity
8
0
100
AcDbCircle
10
-315.34999994434264
20
-539
30
0
40
1.7500000000000071
210
-6.3108872417680944e-30
220
-6.1629758220391547e-33
230
1
0
CIRCLE
5
105
100
AcDbEntity
8
0
100
AcDbCircle
10
315.34999994434094
20
-262.5
30
0
40
1.7500000000000071
210
-6.3108872417680944e-30
220
-6.1629758220391547e-33
230
1
0
CIRCLE
5
106
100
AcDbEntity
8
0
100
AcDbCircle
10
307.84999994434094
20
-50.699999999999676
30
-3.5527136788005009e-14
40
1.7500000000000071
210
-6.3108872417680944e-30
220
-6.1629758220391547e-33
230
1
0
CIRCLE
5
107
100
AcDbEntity
8
0
100
AcDbCircle
10
-315.34999994434264
20
-301.49999999999994
30
-3.5527136788005009e-14
40
1.7500000000000071
210
-6.3108872417680944e-30
220
-6.1629758220391547e-33
230
1
0
LWPOLYLINE
5
108
100
AcDbEntity
8
0
100
AcDbPolyline
90
4
70
1
43
0.0
10
-261.34999994434332
20
-50.399999999999665
42
0.99999999999999989
10
-261.34999994434332
20
-59.59999999999966
10
-258.34999994434332
20
-59.59999999999966
42
0.99999999999999989
10
-258.34999994434332
20
-50.399999999999665
0
CIRCLE
5
109
100
AcDbEntity
8
0
100
AcDbCircle
10
315.34999994434094
20
-539
30
0
40
1.7500000000000071
210
-6.3108872417680944e-30
220
-6.1629758220391547e-33
230
1
0
CIRCLE
5
110
100
AcDbEntity
8
0
100
AcDbCircle
10
-315.34999994434264
20
-74.499999999999659
30
0
40
1.7500000000000071
210
-6.3108872417680944e-30
220
-6.1629758220391547e-33
230
1
0
CIRCLE
5
111
100
AcDbEntity
8
0
100
AcDbCircle
10
315.34999994434094
20
-301.49999999999994
30
0
40
1.7500000000000071
210
-6.3108872417680944e-30
220
-6.1629758220391547e-33
230
1
0
LWPOLYLINE
5
112
100
AcDbEntity
8
0
100
AcDbPolyline
90
4
70
1
43
0.0
10
258.3499999443705
20
-50.399999999997469
42
0.99999999999999989
10
258.3499999443581
20
-59.600000000001856
10
261.3499999443581
20
-59.599999999999731
42
0.99999999999999989
10
261.34999994437055
20
-50.399999999997469
0
CIRCLE
5
113
100
AcDbEntity
8
0
100
AcDbCircle
10
-315.34999994434264
20
-262.5
30
-3.5527136788005009e-14
40
1.7500000000000071
210
-6.3108872417680944e-30
220
-6.1629758220391547e-33
230
1
0
CIRCLE
5
114
100
AcDbEntity
8
0
100
AcDbCircle
10
-315.34999994434264
20
-499
30
0
40
1.7500000000000071
210
-6.3108872417680944e-30
220
-6.1629758220391547e-33
230
1
0
ENDSEC
0
SECTION
2
OBJECTS
0
DICTIONARY
5
C
100
AcDbDictionary
3
ACAD_GROUP
350
D
3
ACAD_MLINESTYLE
350
17
0
DICTIONARY
5
D
100
AcDbDictionary
0
DICTIONARY
5
1A
330
C
100
AcDbDictionary
0
DICTIONARY
5
17
100
AcDbDictionary
0
ENDSEC
0
EOF
